<svg width="164" height="179" viewBox="0 0 164 179" fill="none" xmlns="http://www.w3.org/2000/svg">
<path d="M146.45 0H17.28C7.75 0 0 7.75 0 17.28V161.28C0 170.81 7.75 178.56 17.28 178.56H146.45C155.98 178.56 163.73 170.81 163.73 161.28V17.28C163.73 7.75 155.98 0 146.45 0ZM159.81 161.28C159.81 168.65 153.82 174.64 146.45 174.64H17.28C9.91 174.64 3.92 168.65 3.92 161.28V17.28C3.92 9.91 9.91 3.92 17.28 3.92H146.45C153.82 3.92 159.81 9.91 159.81 17.28V161.28Z" fill="#878787"/>
<path d="M74.02 86.87C72.54 87.34 70.77 87.58 68.76 87.58C66.5 87.58 64.45 87.26 62.69 86.63C61.05 86.04 59.85 85.3 59.13 84.43C58.65 83.85 58.28 83.14 58.01 82.32C57.7 81.36 56.76 80.74 55.75 80.81L48.69 81.28C47.67 81.35 46.94 82.29 47.11 83.3C47.49 85.46 48.41 87.46 49.85 89.25C51.72 91.58 54.32 93.35 57.58 94.5C60.7 95.6 64.56 96.16 69.05 96.16C72.68 96.16 76.02 95.6 78.97 94.49C82.02 93.34 84.41 91.7 86.07 89.59C87.73 87.48 88.58 85.2 88.58 82.8C88.58 80.4 87.79 78.18 86.24 76.29C84.71 74.43 82.37 72.89 79.27 71.72C77.25 70.97 73.76 70.14 68.59 69.18C62.13 67.98 60.74 67.13 60.51 66.96C59.85 66.47 59.55 65.91 59.55 65.13C59.55 64.55 59.72 63.66 61.14 62.72C61.98 62.17 63.79 61.51 67.64 61.51C70.57 61.51 72.74 61.97 74.09 62.87C74.99 63.47 75.62 64.29 76.01 65.35C76.35 66.28 77.26 66.87 78.24 66.81L85.37 66.38C86.42 66.32 87.16 65.33 86.94 64.3C86.55 62.48 85.74 60.8 84.52 59.28C82.85 57.19 80.45 55.6 77.39 54.54C74.49 53.54 71.12 53.03 67.39 53.03C63.98 53.03 60.81 53.52 57.99 54.47C54.99 55.49 52.67 57.01 51.07 59.02C49.49 61.01 48.69 63.18 48.69 65.48C48.69 67.6 49.36 69.55 50.69 71.27C52 72.97 53.98 74.4 56.55 75.5C58.45 76.33 61.55 77.16 66.03 78.04C71.14 79.05 73.14 79.55 73.93 79.8C75.39 80.26 76.45 80.8 76.99 81.37C77.49 81.9 77.72 82.49 77.72 83.22C77.72 83.95 77.45 84.62 76.89 85.26C76.31 85.92 75.35 86.46 74.04 86.88L74.02 86.87Z" fill="#878787"/>
<path d="M39 54.43H32.32C31.4971 54.43 30.83 55.0971 30.83 55.92V93.26C30.83 94.0829 31.4971 94.75 32.32 94.75H39C39.8229 94.75 40.49 94.0829 40.49 93.26V55.92C40.49 55.0971 39.8229 54.43 39 54.43Z" fill="#878787"/>
<path d="M136.81 74.64C136.81 70.57 135.91 66.85 134.13 63.61C132.31 60.29 129.62 57.66 126.13 55.79C122.67 53.94 118.75 53.01 114.48 53.01C107.94 53.01 102.5 55.01 98.33 58.96C94.19 62.88 92.09 68.3 92.09 75.08C92.09 78.69 92.98 82.16 94.73 85.39C96.52 88.7 99.19 91.35 102.67 93.27C106.13 95.18 110.1 96.15 114.46 96.15C118.48 96.15 122.28 95.28 125.76 93.57C129.3 91.82 132.08 89.23 134 85.85C135.88 82.55 136.83 78.78 136.83 74.65L136.81 74.64ZM123.08 84.48C120.81 86.7 117.97 87.78 114.42 87.78C110.87 87.78 108.13 86.71 105.84 84.5C103.5 82.26 102.37 79.2 102.37 75.15C102.37 70.08 103.56 66.48 105.92 64.47C108.34 62.4 111.15 61.39 114.51 61.39C116.86 61.39 118.92 61.91 120.79 62.97C122.65 64.02 124.03 65.48 125 67.41C126.02 69.42 126.53 71.85 126.53 74.61C126.53 78.92 125.37 82.24 123.07 84.48H123.08Z" fill="#878787"/>
<path d="M36.88 50.39C37.81 50.94 39.02 50.63 39.57 49.7C41.84 45.85 44.61 42.37 47.76 39.34C52.1 41.23 56.55 42.74 61.08 43.88C60.62 45.26 60.18 46.7 59.78 48.2C59.5 49.25 60.12 50.32 61.16 50.61C62.21 50.89 63.28 50.27 63.57 49.23C63.99 47.68 64.45 46.19 64.93 44.76C70.52 45.89 76.19 46.46 81.87 46.46C87.55 46.46 93.22 45.89 98.81 44.76C99.3 46.18 99.75 47.68 100.17 49.23C100.41 50.1 101.2 50.68 102.06 50.68C102.23 50.68 102.4 50.66 102.57 50.61C103.62 50.33 104.23 49.25 103.95 48.2C103.55 46.71 103.11 45.27 102.65 43.88C107.18 42.74 111.63 41.23 115.97 39.34C119.12 42.38 121.89 45.85 124.16 49.7C124.53 50.32 125.18 50.67 125.85 50.67C126.19 50.67 126.53 50.58 126.84 50.4C127.77 49.85 128.08 48.65 127.53 47.71C124.88 43.22 121.58 39.15 117.77 35.63C117.73 35.59 117.69 35.55 117.64 35.51C114.86 32.96 111.81 30.7 108.54 28.79C100.48 24.08 91.25 21.59 81.86 21.59C72.47 21.59 63.24 24.08 55.18 28.79C51.91 30.7 48.86 32.96 46.08 35.51C46.04 35.55 45.99 35.59 45.95 35.63C42.14 39.15 38.84 43.22 36.19 47.71C35.64 48.64 35.95 49.85 36.88 50.4V50.39ZM66.33 41.02C70.38 31.28 76.02 25.51 81.87 25.51C87.72 25.51 93.35 31.28 97.41 41.02C87.15 43.01 76.6 43.01 66.33 41.02ZM112.71 36.45C108.98 37.98 105.16 39.21 101.29 40.16C99.01 34.49 96.21 29.97 93.05 26.81C100.25 28.51 106.97 31.82 112.7 36.45H112.71ZM70.67 26.82C67.52 29.98 64.71 34.5 62.43 40.17C58.56 39.22 54.74 37.98 51.01 36.46C56.74 31.84 63.47 28.53 70.66 26.82H70.67Z" fill="#878787"/>
<path d="M126.83 98.79C125.9 98.24 124.7 98.55 124.14 99.48C121.87 103.32 119.11 106.79 115.97 109.82C111.63 107.93 107.18 106.42 102.65 105.28C103.11 103.91 103.54 102.48 103.94 100.99C104.22 99.94 103.61 98.87 102.56 98.58C101.52 98.3 100.44 98.91 100.15 99.96C99.73 101.5 99.28 102.98 98.8 104.4C87.62 102.14 76.1 102.14 64.92 104.4C64.44 102.98 63.98 101.5 63.57 99.96C63.29 98.91 62.21 98.3 61.16 98.58C60.11 98.86 59.5 99.94 59.78 100.99C60.18 102.47 60.61 103.9 61.07 105.28C56.54 106.42 52.09 107.93 47.75 109.82C44.61 106.79 41.85 103.33 39.58 99.48C39.03 98.55 37.83 98.24 36.89 98.79C35.96 99.34 35.65 100.54 36.2 101.48C40.8 109.28 47.37 115.81 55.19 120.38C63.25 125.08 72.47 127.57 81.85 127.57C91.23 127.57 100.45 125.08 108.51 120.38C116.33 115.82 122.9 109.28 127.5 101.48C128.05 100.55 127.74 99.35 126.81 98.79H126.83ZM97.4 108.13C93.35 117.87 87.71 123.64 81.86 123.64C76.01 123.64 70.38 117.87 66.32 108.13C76.58 106.14 87.13 106.14 97.39 108.13H97.4ZM51.02 112.69C54.75 111.16 58.57 109.93 62.44 108.98C64.72 114.65 67.52 119.17 70.68 122.33C63.48 120.63 56.76 117.32 51.03 112.69H51.02ZM93.05 122.33C96.2 119.17 99.01 114.65 101.29 108.98C105.16 109.93 108.98 111.17 112.71 112.69C106.98 117.31 100.25 120.62 93.06 122.33H93.05Z" fill="#878787"/>
<path d="M28.3 142.7C27.2 142.19 25.88 141.94 24.36 141.94C22.84 141.94 21.56 142.22 20.49 142.77C19.42 143.33 18.61 144.06 18.07 144.96C17.52 145.87 17.25 146.84 17.25 147.89C17.25 148.94 17.53 149.9 18.1 150.73C18.66 151.56 19.4 152.21 20.31 152.69C21.22 153.17 22.19 153.44 23.22 153.5C23.48 153.5 23.73 153.48 23.94 153.43L20.43 158.03C20.36 158.13 20.33 158.23 20.33 158.34C20.33 158.48 20.38 158.61 20.48 158.71C20.58 158.81 20.7 158.86 20.85 158.86H24.16C24.52 158.86 24.82 158.7 25.05 158.38L29.03 153.16C29.26 152.84 29.39 152.67 29.43 152.64C30.16 151.67 30.71 150.83 31.08 150.11C31.45 149.39 31.64 148.6 31.64 147.73C31.64 146.65 31.36 145.67 30.79 144.78C30.23 143.9 29.39 143.2 28.29 142.69L28.3 142.7ZM26.3 149.69C25.8 150.14 25.17 150.36 24.41 150.36C23.65 150.36 23.04 150.14 22.55 149.69C22.05 149.25 21.8 148.64 21.8 147.88C21.8 147.12 22.04 146.51 22.53 146.06C23.02 145.61 23.64 145.38 24.41 145.38C25.18 145.38 25.8 145.61 26.3 146.06C26.8 146.51 27.05 147.12 27.05 147.88C27.05 148.64 26.8 149.25 26.3 149.69Z" fill="#878787"/>
<path d="M46.07 143.68C44.86 142.54 43.14 141.95 40.9 141.94C39.39 141.94 38.12 142.21 37.07 142.76C36.03 143.31 35.23 144.05 34.7 144.98C34.16 145.91 33.86 146.97 33.79 148.16C33.76 149.05 33.74 149.84 33.74 150.52C33.74 151.2 33.76 151.95 33.79 152.81C33.89 154.69 34.53 156.2 35.7 157.35C36.88 158.5 38.61 159.09 40.9 159.1C43.19 159.08 44.92 158.5 46.1 157.35C47.28 156.2 47.92 154.68 48.04 152.81C48.07 151.95 48.09 151.19 48.09 150.52C48.09 149.85 48.07 149.05 48.04 148.16C47.94 146.32 47.29 144.82 46.08 143.68H46.07ZM43.38 152.69C43.35 153.63 43.13 154.36 42.72 154.87C42.31 155.39 41.7 155.64 40.89 155.64C39.32 155.64 38.49 154.65 38.4 152.68C38.38 152.22 38.38 151.48 38.38 150.46C38.38 149.44 38.38 148.72 38.4 148.29C38.43 147.38 38.65 146.67 39.06 146.14C39.47 145.62 40.07 145.35 40.89 145.33C41.72 145.35 42.33 145.62 42.73 146.14C43.13 146.66 43.34 147.38 43.38 148.29C43.41 148.72 43.43 149.44 43.43 150.46C43.43 151.48 43.41 152.22 43.38 152.68V152.69Z" fill="#878787"/>
<path d="M62.97 143.68C61.76 142.54 60.04 141.95 57.8 141.94C56.29 141.94 55.02 142.21 53.97 142.76C52.93 143.31 52.13 144.05 51.6 144.98C51.06 145.91 50.76 146.97 50.69 148.16C50.66 149.05 50.64 149.84 50.64 150.52C50.64 151.2 50.66 151.95 50.69 152.81C50.79 154.69 51.43 156.2 52.6 157.35C53.78 158.5 55.51 159.09 57.8 159.1C60.09 159.08 61.82 158.5 63 157.35C64.18 156.2 64.82 154.68 64.94 152.81C64.97 151.95 64.99 151.19 64.99 150.52C64.99 149.85 64.97 149.05 64.94 148.16C64.84 146.32 64.19 144.82 62.98 143.68H62.97ZM60.29 152.69C60.26 153.63 60.04 154.36 59.63 154.87C59.22 155.39 58.61 155.64 57.8 155.64C56.23 155.64 55.4 154.65 55.31 152.68C55.29 152.22 55.29 151.48 55.29 150.46C55.29 149.44 55.29 148.72 55.31 148.29C55.34 147.38 55.56 146.67 55.97 146.14C56.38 145.62 56.98 145.35 57.8 145.33C58.63 145.35 59.24 145.62 59.64 146.14C60.04 146.66 60.25 147.38 60.29 148.29C60.32 148.72 60.34 149.44 60.34 150.46C60.34 151.48 60.32 152.22 60.29 152.68V152.69Z" fill="#878787"/>
<path d="M76.39 142.18H73.28C73.06 142.18 72.87 142.24 72.68 142.35L66.96 146.59C66.76 146.7 66.66 146.87 66.66 147.09C66.66 147.2 66.7 147.32 66.78 147.45L68.25 149.29C68.4 149.48 68.56 149.58 68.75 149.58C68.88 149.58 69.01 149.53 69.12 149.44L72.53 146.94V158.29C72.53 158.45 72.59 158.59 72.72 158.71C72.84 158.83 72.99 158.89 73.16 158.89H76.39C76.57 158.89 76.72 158.83 76.84 158.71C76.96 158.59 77.01 158.45 77.01 158.29V142.79C77.01 142.62 76.95 142.47 76.84 142.36C76.72 142.25 76.57 142.19 76.39 142.19V142.18Z" fill="#878787"/>
<path d="M100.31 155.27H93.92L96.21 153.05C97.68 151.98 98.78 151 99.5 150.08C100.22 149.17 100.58 148.15 100.58 147.04C100.58 146.01 100.32 145.1 99.81 144.32C99.3 143.54 98.54 142.94 97.55 142.51C96.56 142.08 95.36 141.87 93.97 141.87C92.58 141.87 91.47 142.12 90.45 142.62C89.43 143.12 88.64 143.8 88.09 144.65C87.53 145.5 87.24 146.44 87.21 147.45C87.21 147.59 87.26 147.71 87.36 147.81C87.46 147.91 87.58 147.95 87.73 147.95H90.84C91.3 147.95 91.59 147.77 91.69 147.4C91.81 146.81 92.05 146.32 92.41 145.93C92.77 145.54 93.3 145.35 93.98 145.35C95.27 145.35 95.92 145.98 95.92 147.23C95.92 147.69 95.72 148.18 95.32 148.68C94.92 149.19 94.33 149.75 93.55 150.37C92.77 150.99 91.63 151.86 90.12 152.97L87.53 155.4C87.12 155.7 86.91 156.09 86.91 156.57V158.26C86.91 158.44 86.97 158.58 87.1 158.69C87.22 158.8 87.38 158.86 87.56 158.86H100.31C100.49 158.86 100.65 158.8 100.77 158.69C100.89 158.58 100.96 158.44 100.96 158.26V155.85C100.96 155.68 100.9 155.53 100.77 155.42C100.65 155.31 100.49 155.25 100.31 155.25V155.27Z" fill="#878787"/>
<path d="M115.65 143.68C114.44 142.54 112.72 141.95 110.48 141.94C108.97 141.94 107.7 142.21 106.65 142.76C105.61 143.31 104.81 144.05 104.28 144.98C103.74 145.91 103.44 146.97 103.37 148.16C103.34 149.05 103.32 149.84 103.32 150.52C103.32 151.2 103.34 151.95 103.37 152.81C103.47 154.69 104.11 156.2 105.28 157.35C106.46 158.5 108.19 159.09 110.48 159.1C112.77 159.08 114.5 158.5 115.68 157.35C116.86 156.2 117.5 154.68 117.62 152.81C117.65 151.95 117.67 151.19 117.67 150.52C117.67 149.85 117.65 149.05 117.62 148.16C117.52 146.32 116.87 144.82 115.66 143.68H115.65ZM112.96 152.69C112.93 153.63 112.71 154.36 112.3 154.87C111.89 155.39 111.28 155.64 110.47 155.64C108.9 155.64 108.07 154.65 107.98 152.68C107.96 152.22 107.96 151.48 107.96 150.46C107.96 149.44 107.96 148.72 107.98 148.29C108.01 147.38 108.23 146.67 108.64 146.14C109.05 145.62 109.65 145.35 110.47 145.33C111.3 145.35 111.91 145.62 112.31 146.14C112.71 146.66 112.92 147.38 112.96 148.29C112.99 148.72 113.01 149.44 113.01 150.46C113.01 151.48 112.99 152.22 112.96 152.68V152.69Z" fill="#878787"/>
<path d="M129.07 142.18H125.96C125.74 142.18 125.55 142.24 125.36 142.35L119.64 146.59C119.44 146.7 119.34 146.87 119.34 147.09C119.34 147.2 119.38 147.32 119.46 147.45L120.93 149.29C121.08 149.48 121.24 149.58 121.43 149.58C121.56 149.58 121.69 149.53 121.8 149.44L125.21 146.94V158.29C125.21 158.45 125.27 158.59 125.4 158.71C125.52 158.83 125.67 158.89 125.84 158.89H129.07C129.25 158.89 129.4 158.83 129.52 158.71C129.64 158.59 129.69 158.45 129.69 158.29V142.79C129.69 142.62 129.63 142.47 129.52 142.36C129.4 142.25 129.25 142.19 129.07 142.19V142.18Z" fill="#878787"/>
<path d="M143.41 148.56C142.48 148.11 141.5 147.88 140.45 147.88C139.65 147.88 139.01 147.95 138.51 148.08C138.01 148.22 137.56 148.42 137.14 148.69L137.46 145.61H144.67C144.85 145.61 145.01 145.55 145.13 145.44C145.25 145.33 145.32 145.19 145.32 145.01V142.77C145.32 142.6 145.26 142.45 145.13 142.34C145.01 142.23 144.85 142.17 144.67 142.17H134.7C134.48 142.17 134.3 142.23 134.14 142.36C133.98 142.49 133.9 142.66 133.88 142.88L132.99 151.2C132.99 151.34 133.04 151.47 133.15 151.57C133.26 151.67 133.39 151.72 133.54 151.72H136.8C136.97 151.72 137.19 151.62 137.47 151.41C137.73 151.22 138 151.07 138.25 150.97C138.51 150.87 138.85 150.82 139.28 150.82C140.04 150.82 140.67 151.04 141.16 151.49C141.65 151.94 141.89 152.51 141.89 153.21C141.89 153.99 141.64 154.6 141.13 155.03C140.62 155.47 140.01 155.69 139.28 155.69C138.05 155.69 137.22 155.16 136.77 154.09C136.62 153.79 136.36 153.64 135.97 153.64H132.64C132.49 153.64 132.37 153.69 132.27 153.78C132.17 153.88 132.12 153.99 132.12 154.14C132.15 155.03 132.45 155.86 133 156.62C133.55 157.38 134.36 157.99 135.42 158.44C136.48 158.89 137.76 159.12 139.25 159.12C140.74 159.12 142.01 158.87 143.09 158.38C144.18 157.89 145.01 157.2 145.59 156.32C146.17 155.44 146.46 154.43 146.46 153.3C146.46 152.24 146.18 151.29 145.63 150.46C145.07 149.63 144.33 148.99 143.41 148.54V148.56Z" fill="#878787"/>
<path d="M82.26 149.37C83.3867 149.37 84.3 148.457 84.3 147.33C84.3 146.203 83.3867 145.29 82.26 145.29C81.1333 145.29 80.22 146.203 80.22 147.33C80.22 148.457 81.1333 149.37 82.26 149.37Z" fill="#878787"/>
<path d="M82.26 152.85C81.13 152.85 80.22 153.76 80.22 154.89C80.22 156.02 81.13 156.93 82.26 156.93C83.39 156.93 84.3 156.02 84.3 154.89C84.3 153.76 83.39 152.85 82.26 152.85Z" fill="#878787"/>
</svg>
