<svg width="166" height="124" viewBox="0 0 166 124" fill="none" xmlns="http://www.w3.org/2000/svg">
<g clip-path="url(#clip0_7_2)">
<path d="M109.739 2.69984C108.303 0.11494 105.119 -0.762368 102.635 0.720298L82.9076 12.5367L63.1804 0.720298C60.6886 -0.762368 57.5129 0.11494 56.0847 2.69984C54.6407 5.2776 55.4868 8.58477 57.9788 10.0678L72.5045 18.7821L66.5965 22.3147C64.1042 23.7977 63.2579 27.1125 64.6945 29.6903C66.1306 32.2755 69.3137 33.1602 71.7981 31.6698L77.7061 28.1296V63.8422C77.7061 66.8234 80.0351 69.2299 82.9076 69.2299C85.7724 69.2299 88.1094 66.8234 88.1094 63.8422V28.1296L94.0097 31.6698C96.5017 33.1602 99.6769 32.2755 101.113 29.6903C102.558 27.1125 101.703 23.7977 99.2189 22.3147L93.311 18.7821L107.837 10.0678C110.329 8.58477 111.175 5.2776 109.739 2.69984Z" fill="#D31B21"/>
<path d="M125.858 99.7782L125.848 99.0552L125.825 98.0524L125.802 97.0541L125.792 96.331H113.161C112.419 96.331 111.663 96.499 110.87 96.8255C109.853 97.2499 109.345 97.8051 109.345 98.486V100.959C109.345 101.686 109.867 102.232 110.926 102.619C111.598 102.918 112.381 103.071 113.268 103.071H122.103C123.423 103.071 124.337 102.913 124.831 102.605C125.517 102.171 125.858 101.234 125.858 99.7782ZM129.347 100.8C129.347 104.732 126.926 106.691 122.065 106.691H113.366C111.5 106.691 109.886 106.276 108.528 105.446C106.695 104.378 105.786 102.904 105.786 101.001V98.5096C105.786 96.457 106.658 94.9223 108.393 93.9007C109.685 93.1079 111.304 92.7067 113.249 92.7067H125.825C125.639 91.3258 124.025 90.6402 121.002 90.6402C120.88 90.6402 120.736 90.6402 120.554 90.6542C120.386 90.6589 120.185 90.6634 119.962 90.6821C119.948 90.7009 119.891 90.7009 119.794 90.7009H119.64H119.369H118.949C118.072 90.7009 117.634 90.029 117.634 88.6715C117.634 87.5941 118.072 87.0577 118.949 87.0577C121.79 87.0577 123.964 87.3001 125.471 87.7714C128.055 88.6623 129.347 90.4396 129.347 93.0985V100.8ZM103.878 105.18C103.878 106.187 103.379 106.691 102.376 106.691C101.429 106.691 100.855 106.635 100.659 106.509L88.4983 99.1204V105.077C88.4983 105.838 88.2604 106.332 87.794 106.551C87.6448 106.649 87.1455 106.691 86.2872 106.691C85.4102 106.691 84.9717 106.15 84.9717 105.077V83.3446C84.9717 82.2857 85.4102 81.7492 86.2872 81.7492C87.1128 81.7492 87.6119 81.7958 87.8078 81.8751C88.2696 82.0619 88.4983 82.5609 88.4983 83.3446V94.675L100.505 87.3843C100.808 87.2769 101.35 87.2257 102.124 87.2257C103.117 87.2257 103.626 87.7248 103.626 88.7184C103.626 89.3713 103.318 89.8845 102.707 90.2531L91.8196 96.8488L102.963 103.622C103.57 103.99 103.878 104.513 103.878 105.18ZM82.4481 105.077C82.4481 106.15 82.0098 106.691 81.1281 106.691C80.2651 106.691 79.7659 106.649 79.6214 106.551C79.127 106.332 78.8893 105.838 78.8893 105.077V83.3446C78.8893 82.2857 79.3321 81.7492 80.2091 81.7492C81.0207 81.7492 81.534 81.7958 81.7346 81.8751C82.2149 82.0619 82.4481 82.5609 82.4481 83.3446V105.077ZM73.3569 95.2488V92.8372C73.3569 91.3539 70.9497 90.6261 66.1219 90.6261C63.2904 90.6261 61.336 90.7427 60.277 90.9853C58.7843 91.3258 58.0379 91.9975 58.0379 92.9958V95.2488H73.3569ZM76.8273 97.2126C76.8273 98.4067 76.5053 98.9946 75.8383 98.9946H58.1499V99.1392C58.1499 101.001 59.0548 102.19 60.8555 102.722C61.2426 102.833 61.8118 102.913 62.5626 102.978C63.3137 103.039 64.2608 103.071 65.4222 103.071C66.2943 103.071 66.7328 103.743 66.7328 105.077C66.7328 106.15 66.2943 106.691 65.4222 106.691C64.2231 106.691 63.2482 106.687 62.4974 106.663C61.7325 106.649 61.1633 106.603 60.7715 106.551C58.8122 106.304 57.3754 105.744 56.4474 104.877C55.1319 103.631 54.4789 102.167 54.4789 100.492V93.2665C54.4789 90.9898 55.4862 89.32 57.5108 88.2238C58.8964 87.4355 60.7293 87.0389 63.0105 87.0389H69.653C71.5189 87.0389 73.0629 87.4169 74.2849 88.1585C75.9829 89.1241 76.8273 90.5609 76.8273 92.4826V97.2126ZM53.3964 89.2268C53.3964 90.2856 52.9534 90.822 52.0717 90.822H46.437V105.077C46.437 106.15 45.9985 106.691 45.1215 106.691C44.2538 106.691 43.7546 106.649 43.6053 106.551C43.1202 106.332 42.8823 105.838 42.8823 105.077V90.822C42.4067 90.822 42.0195 90.8126 41.7209 90.7988C41.4269 90.7755 41.2125 90.7474 41.0911 90.7241C40.5313 90.491 40.2469 89.9218 40.2469 89.0262C40.2469 88.1213 40.5313 87.5567 41.0911 87.3236C41.2125 87.3001 41.4269 87.2722 41.7209 87.2489C42.0195 87.2302 42.4067 87.2257 42.8823 87.2257V83.3446C42.8823 82.2857 43.3161 81.7492 44.1931 81.7492C45.056 81.7492 45.5645 81.8006 45.7137 81.8984C46.1897 82.1037 46.437 82.5842 46.437 83.3446V87.2257H52.0717C52.9534 87.2257 53.3964 87.8927 53.3964 89.2268ZM38.5629 100.842C38.5629 104.783 35.1204 106.752 28.2399 106.752L27.5029 106.747C27.1998 106.738 26.8451 106.729 26.4394 106.71C26.43 106.701 26.3834 106.691 26.2993 106.691H26.1501H25.8843H25.3899H24.6387C18.8545 106.691 15.9673 104.746 15.9673 100.842V88.6715C15.9673 87.5941 16.4104 87.0577 17.2873 87.0577C18.1595 87.0577 18.668 87.0995 18.8221 87.207C19.293 87.3981 19.5263 87.8927 19.5263 88.6715V100.842C19.5263 102.33 21.2242 103.071 24.6387 103.071H29.9425C33.2871 103.071 34.9571 102.344 34.9571 100.893V88.6715C34.9571 87.8927 35.1997 87.3981 35.6755 87.207C35.8201 87.0995 36.3473 87.0577 37.2288 87.0577C38.1103 87.0577 38.5629 87.5941 38.5629 88.6715V100.842ZM22.9503 83.8438C22.9503 84.9212 22.5069 85.4576 21.6348 85.4576H13.3177V105.077C13.3177 106.15 12.893 106.691 12.0256 106.691C11.1345 106.691 10.5888 106.654 10.3743 106.575C9.84725 106.374 9.58114 105.884 9.58114 105.077V85.4576H1.33412C0.443193 85.4576 0 84.9212 0 83.8438C0 83.102 0.0700572 82.5935 0.20514 82.323C0.387088 81.9498 0.760386 81.7492 1.33412 81.7492H21.6348C22.5069 81.7492 22.9503 82.449 22.9503 83.8438ZM153.818 105.077C153.818 106.15 153.375 106.691 152.484 106.691C151.602 106.691 151.094 106.649 150.954 106.551C150.464 106.346 150.226 105.847 150.226 105.077V92.5852C150.226 91.7037 149.615 91.1205 148.402 90.8454C148.187 90.7941 147.856 90.7519 147.413 90.7382C146.97 90.7148 146.41 90.7009 145.739 90.7009H139.604C138.979 90.7009 138.462 90.7148 138.047 90.7427C137.617 90.7755 137.282 90.8081 137.039 90.8689C135.891 91.1347 135.322 91.7223 135.322 92.6087V105.077C135.322 106.15 134.875 106.691 133.998 106.691C133.125 106.691 132.612 106.649 132.468 106.551C131.996 106.346 131.759 105.847 131.759 105.077V92.6413C131.759 88.9235 134.483 87.0577 139.922 87.0577H145.739C151.122 87.0577 153.818 88.9049 153.818 92.6087V105.077Z" fill="#3D3D3C"/>
<path d="M161.225 83.6449C159.358 83.6402 157.829 85.1669 157.827 87.0369C157.825 88.901 159.34 90.4219 161.211 90.4328C163.074 90.4437 164.606 88.9188 164.614 87.0454C164.621 85.1802 163.096 83.6496 161.225 83.6449ZM157.211 87.0324C157.213 84.8164 159.008 83.0269 161.227 83.0287C163.443 83.0305 165.232 84.8255 165.23 87.0452C165.228 89.2654 163.43 91.0536 161.204 91.049C158.995 91.0445 157.209 89.2477 157.211 87.0324Z" fill="#3D3D3C"/>
<path d="M160.607 87.0384C160.925 87.0384 161.233 87.0399 161.541 87.0371C161.597 87.0365 161.656 87.024 161.71 87.0073C161.988 86.9223 162.177 86.6405 162.143 86.3669C162.102 86.0439 161.858 85.8126 161.537 85.8061C161.238 85.8001 160.94 85.8047 160.642 85.8053C160.63 85.8053 160.618 85.8112 160.607 85.8142V87.0384ZM162.103 87.5355C162.237 87.7278 162.374 87.9247 162.512 88.1215C162.576 88.2138 162.642 88.3048 162.703 88.3985C162.806 88.554 162.772 88.7416 162.625 88.8394C162.483 88.9348 162.3 88.8993 162.193 88.7484C161.96 88.4183 161.728 88.0873 161.501 87.7526C161.45 87.6769 161.396 87.6503 161.305 87.653C161.075 87.6603 160.844 87.6555 160.603 87.6555C160.603 87.8261 160.603 87.9889 160.603 88.1515C160.603 88.2962 160.605 88.4407 160.602 88.5853C160.6 88.7582 160.467 88.889 160.296 88.8895C160.125 88.8899 159.988 88.7588 159.988 88.5871C159.986 87.5559 159.987 86.5249 159.988 85.4936C159.988 85.3195 160.118 85.1894 160.293 85.1889C160.726 85.1875 161.16 85.1841 161.593 85.1898C162.196 85.1977 162.744 85.7432 162.761 86.3453C162.776 86.844 162.573 87.2259 162.149 87.4901C162.136 87.4985 162.123 87.5081 162.11 87.5176C162.108 87.5192 162.108 87.5235 162.103 87.5355Z" fill="#3D3D3C"/>
<path d="M13.4759 114.727H14.5767V119.511C14.5767 120.02 14.4571 120.471 14.218 120.864C13.9789 121.254 13.6428 121.562 13.2095 121.787C12.7763 122.009 12.2685 122.121 11.6861 122.121C11.1061 122.121 10.5994 122.009 10.1662 121.787C9.73295 121.562 9.39678 121.254 9.15767 120.864C8.91856 120.471 8.79901 120.02 8.79901 119.511V114.727H9.89631V119.422C9.89631 119.751 9.96851 120.043 10.1129 120.299C10.2597 120.555 10.4669 120.756 10.7344 120.903C11.0019 121.047 11.3191 121.119 11.6861 121.119C12.0554 121.119 12.3738 121.047 12.6413 120.903C12.9112 120.756 13.1172 120.555 13.2592 120.299C13.4036 120.043 13.4759 119.751 13.4759 119.422V114.727ZM17.9486 118.761V122H16.8868V116.545H17.906V117.433H17.9735C18.0989 117.144 18.2954 116.912 18.563 116.737C18.8328 116.562 19.1726 116.474 19.5821 116.474C19.9538 116.474 20.2793 116.553 20.5587 116.709C20.8381 116.863 21.0547 117.092 21.2086 117.398C21.3624 117.703 21.4394 118.081 21.4394 118.531V122H20.3776V118.658C20.3776 118.263 20.2746 117.954 20.0686 117.732C19.8627 117.507 19.5798 117.394 19.2199 117.394C18.9737 117.394 18.7547 117.447 18.563 117.554C18.3736 117.661 18.2232 117.817 18.112 118.023C18.0031 118.226 17.9486 118.473 17.9486 118.761ZM27.1099 124.045V116.545H28.1468V117.43H28.2356C28.2971 117.316 28.3859 117.185 28.5019 117.036C28.6179 116.886 28.7789 116.756 28.9849 116.645C29.1908 116.531 29.4631 116.474 29.8016 116.474C30.242 116.474 30.635 116.586 30.9806 116.808C31.3263 117.031 31.5973 117.352 31.7938 117.771C31.9927 118.19 32.0921 118.694 32.0921 119.283C32.0921 119.873 31.9939 120.378 31.7974 120.8C31.6009 121.219 31.331 121.542 30.9877 121.769C30.6444 121.994 30.2526 122.107 29.8123 122.107C29.4808 122.107 29.2098 122.051 28.9991 121.94C28.7907 121.828 28.6274 121.698 28.509 121.549C28.3906 121.4 28.2995 121.267 28.2356 121.151H28.1717V124.045H27.1099ZM28.1504 119.273C28.1504 119.656 28.206 119.992 28.3173 120.281C28.4285 120.57 28.5895 120.796 28.8002 120.96C29.0109 121.121 29.269 121.201 29.5744 121.201C29.8916 121.201 30.1567 121.117 30.3698 120.949C30.5829 120.778 30.7439 120.548 30.8528 120.256C30.964 119.965 31.0197 119.637 31.0197 119.273C31.0197 118.913 30.9652 118.59 30.8563 118.303C30.7498 118.017 30.5888 117.791 30.3734 117.625C30.1603 117.459 29.894 117.376 29.5744 117.376C29.2666 117.376 29.0062 117.456 28.7931 117.614C28.5824 117.773 28.4226 117.994 28.3137 118.278C28.2048 118.562 28.1504 118.894 28.1504 119.273ZM35.6691 122.121C35.3235 122.121 35.011 122.057 34.7316 121.929C34.4522 121.799 34.2309 121.611 34.0675 121.364C33.9066 121.118 33.8261 120.816 33.8261 120.459C33.8261 120.151 33.8853 119.898 34.0036 119.699C34.122 119.5 34.2818 119.343 34.483 119.227C34.6843 119.111 34.9092 119.023 35.1577 118.964C35.4063 118.905 35.6596 118.86 35.9177 118.829C36.2444 118.791 36.5095 118.76 36.7131 118.737C36.9167 118.71 37.0647 118.669 37.157 118.612C37.2494 118.555 37.2955 118.463 37.2955 118.335V118.31C37.2955 118 37.2079 117.76 37.0327 117.589C36.8599 117.419 36.6019 117.334 36.2586 117.334C35.9011 117.334 35.6194 117.413 35.4134 117.572C35.2098 117.728 35.069 117.902 34.9908 118.094L33.993 117.866C34.1113 117.535 34.2842 117.268 34.5114 117.064C34.7411 116.858 35.005 116.709 35.3033 116.616C35.6016 116.522 35.9153 116.474 36.2444 116.474C36.4622 116.474 36.693 116.5 36.9369 116.553C37.1831 116.602 37.4127 116.695 37.6258 116.83C37.8412 116.964 38.0176 117.157 38.1549 117.408C38.2922 117.657 38.3609 117.98 38.3609 118.378V122H37.3239V121.254H37.2813C37.2127 121.392 37.1097 121.527 36.9724 121.659C36.8351 121.792 36.6587 121.902 36.4433 121.989C36.2278 122.077 35.9698 122.121 35.6691 122.121ZM35.8999 121.268C36.1935 121.268 36.4444 121.21 36.6528 121.094C36.8635 120.978 37.0233 120.827 37.1322 120.64C37.2434 120.451 37.2991 120.248 37.2991 120.033V119.33C37.2612 119.367 37.1878 119.403 37.0789 119.436C36.9724 119.467 36.8505 119.494 36.7131 119.518C36.5758 119.539 36.4421 119.559 36.3119 119.578C36.1817 119.595 36.0728 119.609 35.9852 119.621C35.7792 119.647 35.591 119.691 35.4205 119.752C35.2524 119.814 35.1175 119.902 35.0157 120.018C34.9163 120.132 34.8665 120.284 34.8665 120.473C34.8665 120.736 34.9636 120.935 35.1577 121.07C35.3519 121.202 35.5993 121.268 35.8999 121.268ZM44.6625 117.877L43.7001 118.048C43.6599 117.924 43.5959 117.807 43.5083 117.696C43.4231 117.585 43.3071 117.494 43.1603 117.423C43.0136 117.352 42.8301 117.316 42.6099 117.316C42.3092 117.316 42.0583 117.384 41.8571 117.518C41.6558 117.651 41.5552 117.823 41.5552 118.033C41.5552 118.216 41.6227 118.362 41.7576 118.474C41.8926 118.585 42.1104 118.676 42.411 118.747L43.2775 118.946C43.7794 119.062 44.1535 119.241 44.3997 119.482C44.6459 119.724 44.769 120.037 44.769 120.423C44.769 120.75 44.6743 121.041 44.4849 121.297C44.2979 121.55 44.0363 121.749 43.7001 121.893C43.3663 122.038 42.9792 122.11 42.5389 122.11C41.9281 122.11 41.4297 121.98 41.0439 121.719C40.658 121.457 40.4212 121.084 40.3336 120.601L41.3599 120.445C41.4238 120.712 41.5552 120.915 41.7541 121.052C41.9529 121.187 42.2122 121.254 42.5318 121.254C42.8798 121.254 43.158 121.182 43.3663 121.038C43.5746 120.891 43.6788 120.712 43.6788 120.501C43.6788 120.331 43.6149 120.188 43.487 120.072C43.3616 119.956 43.1686 119.868 42.9082 119.809L41.9849 119.607C41.4759 119.491 41.0995 119.306 40.8556 119.053C40.6142 118.799 40.4934 118.478 40.4934 118.09C40.4934 117.768 40.5834 117.487 40.7633 117.245C40.9432 117.004 41.1918 116.815 41.5091 116.68C41.8263 116.543 42.1897 116.474 42.5993 116.474C43.1887 116.474 43.6528 116.602 43.9913 116.858C44.3298 117.111 44.5536 117.451 44.6625 117.877ZM49.034 122.11C48.5227 122.11 48.0764 121.993 47.6952 121.759C47.3141 121.524 47.0182 121.196 46.8075 120.775C46.5968 120.353 46.4914 119.861 46.4914 119.298C46.4914 118.732 46.5968 118.237 46.8075 117.813C47.0182 117.389 47.3141 117.06 47.6952 116.826C48.0764 116.592 48.5227 116.474 49.034 116.474C49.5454 116.474 49.9916 116.592 50.3728 116.826C50.754 117.06 51.0499 117.389 51.2606 117.813C51.4713 118.237 51.5766 118.732 51.5766 119.298C51.5766 119.861 51.4713 120.353 51.2606 120.775C51.0499 121.196 50.754 121.524 50.3728 121.759C49.9916 121.993 49.5454 122.11 49.034 122.11ZM49.0376 121.219C49.369 121.219 49.6436 121.131 49.8614 120.956C50.0792 120.781 50.2402 120.548 50.3444 120.256C50.4509 119.965 50.5042 119.644 50.5042 119.294C50.5042 118.946 50.4509 118.626 50.3444 118.335C50.2402 118.042 50.0792 117.806 49.8614 117.629C49.6436 117.451 49.369 117.362 49.0376 117.362C48.7038 117.362 48.4268 117.451 48.2066 117.629C47.9888 117.806 47.8266 118.042 47.7201 118.335C47.6159 118.626 47.5638 118.946 47.5638 119.294C47.5638 119.644 47.6159 119.965 47.7201 120.256C47.8266 120.548 47.9888 120.781 48.2066 120.956C48.4268 121.131 48.7038 121.219 49.0376 121.219ZM58.5957 122.121C58.25 122.121 57.9375 122.057 57.6582 121.929C57.3788 121.799 57.1575 121.611 56.9941 121.364C56.8331 121.118 56.7526 120.816 56.7526 120.459C56.7526 120.151 56.8118 119.898 56.9302 119.699C57.0486 119.5 57.2084 119.343 57.4096 119.227C57.6108 119.111 57.8357 119.023 58.0843 118.964C58.3329 118.905 58.5862 118.86 58.8442 118.829C59.171 118.791 59.4361 118.76 59.6397 118.737C59.8433 118.71 59.9913 118.669 60.0836 118.612C60.1759 118.555 60.2221 118.463 60.2221 118.335V118.31C60.2221 118 60.1345 117.76 59.9593 117.589C59.7865 117.419 59.5284 117.334 59.1852 117.334C58.8277 117.334 58.546 117.413 58.34 117.572C58.1364 117.728 57.9955 117.902 57.9174 118.094L56.9195 117.866C57.0379 117.535 57.2107 117.268 57.438 117.064C57.6676 116.858 57.9316 116.709 58.2299 116.616C58.5282 116.522 58.8419 116.474 59.171 116.474C59.3888 116.474 59.6196 116.5 59.8634 116.553C60.1096 116.602 60.3393 116.695 60.5523 116.83C60.7678 116.964 60.9442 117.157 61.0815 117.408C61.2188 117.657 61.2874 117.98 61.2874 118.378V122H60.2505V121.254H60.2079C60.1392 121.392 60.0362 121.527 59.8989 121.659C59.7616 121.792 59.5853 121.902 59.3698 121.989C59.1544 122.077 58.8963 122.121 58.5957 122.121ZM58.8265 121.268C59.1201 121.268 59.371 121.21 59.5793 121.094C59.79 120.978 59.9498 120.827 60.0587 120.64C60.17 120.451 60.2256 120.248 60.2256 120.033V119.33C60.1878 119.367 60.1144 119.403 60.0055 119.436C59.8989 119.467 59.777 119.494 59.6397 119.518C59.5024 119.539 59.3686 119.559 59.2384 119.578C59.1082 119.595 58.9993 119.609 58.9117 119.621C58.7058 119.647 58.5175 119.691 58.3471 119.752C58.179 119.814 58.0441 119.902 57.9423 120.018C57.8428 120.132 57.7931 120.284 57.7931 120.473C57.7931 120.736 57.8902 120.935 58.0843 121.07C58.2784 121.202 58.5258 121.268 58.8265 121.268ZM68.0099 114.727V122H66.9482V114.727H68.0099ZM71.8257 122.121C71.4801 122.121 71.1676 122.057 70.8882 121.929C70.6089 121.799 70.3875 121.611 70.2242 121.364C70.0632 121.118 69.9827 120.816 69.9827 120.459C69.9827 120.151 70.0419 119.898 70.1603 119.699C70.2786 119.5 70.4384 119.343 70.6397 119.227C70.8409 119.111 71.0658 119.023 71.3144 118.964C71.563 118.905 71.8163 118.86 72.0743 118.829C72.401 118.791 72.6662 118.76 72.8698 118.737C73.0734 118.71 73.2213 118.669 73.3137 118.612C73.406 118.555 73.4522 118.463 73.4522 118.335V118.31C73.4522 118 73.3646 117.76 73.1894 117.589C73.0166 117.419 72.7585 117.334 72.4152 117.334C72.0578 117.334 71.776 117.413 71.5701 117.572C71.3665 117.728 71.2256 117.902 71.1475 118.094L70.1496 117.866C70.268 117.535 70.4408 117.268 70.6681 117.064C70.8977 116.858 71.1617 116.709 71.46 116.616C71.7583 116.522 72.072 116.474 72.401 116.474C72.6188 116.474 72.8497 116.5 73.0935 116.553C73.3397 116.602 73.5694 116.695 73.7824 116.83C73.9979 116.964 74.1742 117.157 74.3115 117.408C74.4489 117.657 74.5175 117.98 74.5175 118.378V122H73.4806V121.254H73.438C73.3693 121.392 73.2663 121.527 73.129 121.659C72.9917 121.792 72.8153 121.902 72.5999 121.989C72.3845 122.077 72.1264 122.121 71.8257 122.121ZM72.0566 121.268C72.3501 121.268 72.6011 121.21 72.8094 121.094C73.0201 120.978 73.1799 120.827 73.2888 120.64C73.4001 120.451 73.4557 120.248 73.4557 120.033V119.33C73.4178 119.367 73.3444 119.403 73.2355 119.436C73.129 119.467 73.0071 119.494 72.8698 119.518C72.7325 119.539 72.5987 119.559 72.4685 119.578C72.3383 119.595 72.2294 119.609 72.1418 119.621C71.9358 119.647 71.7476 119.691 71.5772 119.752C71.4091 119.814 71.2741 119.902 71.1723 120.018C71.0729 120.132 71.0232 120.284 71.0232 120.473C71.0232 120.736 71.1203 120.935 71.3144 121.07C71.5085 121.202 71.7559 121.268 72.0566 121.268ZM80.1782 124.045V116.545H81.2152V117.43H81.3039C81.3655 117.316 81.4543 117.185 81.5703 117.036C81.6863 116.886 81.8473 116.756 82.0532 116.645C82.2592 116.531 82.5315 116.474 82.87 116.474C83.3103 116.474 83.7033 116.586 84.049 116.808C84.3946 117.031 84.6657 117.352 84.8622 117.771C85.061 118.19 85.1605 118.694 85.1605 119.283C85.1605 119.873 85.0622 120.378 84.8657 120.8C84.6692 121.219 84.3994 121.542 84.0561 121.769C83.7128 121.994 83.321 122.107 82.8806 122.107C82.5492 122.107 82.2781 122.051 82.0674 121.94C81.8591 121.828 81.6958 121.698 81.5774 121.549C81.459 121.4 81.3679 121.267 81.3039 121.151H81.24V124.045H80.1782ZM81.2187 119.273C81.2187 119.656 81.2744 119.992 81.3856 120.281C81.4969 120.57 81.6579 120.796 81.8686 120.96C82.0793 121.121 82.3373 121.201 82.6427 121.201C82.96 121.201 83.2251 121.117 83.4382 120.949C83.6512 120.778 83.8122 120.548 83.9211 120.256C84.0324 119.965 84.088 119.637 84.088 119.273C84.088 118.913 84.0336 118.59 83.9247 118.303C83.8181 118.017 83.6572 117.791 83.4417 117.625C83.2287 117.459 82.9623 117.376 82.6427 117.376C82.335 117.376 82.0745 117.456 81.8615 117.614C81.6508 117.773 81.491 117.994 81.3821 118.278C81.2732 118.562 81.2187 118.894 81.2187 119.273ZM87.1501 122V116.545H88.1764V117.412H88.2332C88.3326 117.118 88.5078 116.888 88.7588 116.719C89.0121 116.549 89.2985 116.464 89.6181 116.464C89.6844 116.464 89.7626 116.466 89.8525 116.471C89.9448 116.476 90.0171 116.482 90.0691 116.489V117.504C90.0265 117.492 89.9508 117.479 89.8419 117.465C89.733 117.449 89.6241 117.44 89.5152 117.44C89.2642 117.44 89.0405 117.494 88.844 117.6C88.6499 117.704 88.496 117.85 88.3823 118.037C88.2687 118.222 88.2119 118.432 88.2119 118.669V122H87.1501ZM93.8903 122.11C93.3789 122.11 92.9326 121.993 92.5515 121.759C92.1703 121.524 91.8744 121.196 91.6637 120.775C91.453 120.353 91.3477 119.861 91.3477 119.298C91.3477 118.732 91.453 118.237 91.6637 117.813C91.8744 117.389 92.1703 117.06 92.5515 116.826C92.9326 116.592 93.3789 116.474 93.8903 116.474C94.4016 116.474 94.8479 116.592 95.229 116.826C95.6102 117.06 95.9061 117.389 96.1168 117.813C96.3275 118.237 96.4329 118.732 96.4329 119.298C96.4329 119.861 96.3275 120.353 96.1168 120.775C95.9061 121.196 95.6102 121.524 95.229 121.759C94.8479 121.993 94.4016 122.11 93.8903 122.11ZM93.8938 121.219C94.2253 121.219 94.4999 121.131 94.7177 120.956C94.9355 120.781 95.0965 120.548 95.2006 120.256C95.3072 119.965 95.3604 119.644 95.3604 119.294C95.3604 118.946 95.3072 118.626 95.2006 118.335C95.0965 118.042 94.9355 117.806 94.7177 117.629C94.4999 117.451 94.2253 117.362 93.8938 117.362C93.56 117.362 93.283 117.451 93.0629 117.629C92.8451 117.806 92.6829 118.042 92.5763 118.335C92.4722 118.626 92.4201 118.946 92.4201 119.294C92.4201 119.644 92.4722 119.965 92.5763 120.256C92.6829 120.548 92.8451 120.781 93.0629 120.956C93.283 121.131 93.56 121.219 93.8938 121.219ZM100.46 122.107C100.02 122.107 99.6266 121.994 99.281 121.769C98.9377 121.542 98.6678 121.219 98.4713 120.8C98.2772 120.378 98.1802 119.873 98.1802 119.283C98.1802 118.694 98.2784 118.19 98.4749 117.771C98.6738 117.352 98.946 117.031 99.2917 116.808C99.6373 116.586 100.029 116.474 100.467 116.474C100.806 116.474 101.078 116.531 101.284 116.645C101.492 116.756 101.653 116.886 101.767 117.036C101.883 117.185 101.973 117.316 102.037 117.43H102.101V114.727H103.162V122H102.125V121.151H102.037C101.973 121.267 101.88 121.4 101.76 121.549C101.641 121.698 101.478 121.828 101.27 121.94C101.061 122.051 100.791 122.107 100.46 122.107ZM100.694 121.201C101 121.201 101.258 121.121 101.469 120.96C101.682 120.796 101.843 120.57 101.951 120.281C102.063 119.992 102.118 119.656 102.118 119.273C102.118 118.894 102.064 118.562 101.955 118.278C101.846 117.994 101.686 117.773 101.476 117.614C101.265 117.456 101.004 117.376 100.694 117.376C100.375 117.376 100.108 117.459 99.8954 117.625C99.6823 117.791 99.5213 118.017 99.4124 118.303C99.3059 118.59 99.2526 118.913 99.2526 119.273C99.2526 119.637 99.307 119.965 99.4159 120.256C99.5248 120.548 99.6858 120.778 99.8989 120.949C100.114 121.117 100.379 121.201 100.694 121.201ZM108.933 119.738V116.545H109.998V122H108.954V121.055H108.898C108.772 121.347 108.571 121.589 108.294 121.783C108.019 121.975 107.677 122.071 107.268 122.071C106.917 122.071 106.607 121.994 106.337 121.84C106.07 121.684 105.859 121.453 105.705 121.148C105.554 120.842 105.478 120.465 105.478 120.015V116.545H106.54V119.887C106.54 120.259 106.643 120.555 106.849 120.775C107.055 120.995 107.322 121.105 107.651 121.105C107.85 121.105 108.048 121.055 108.244 120.956C108.443 120.857 108.608 120.706 108.738 120.505C108.87 120.304 108.935 120.048 108.933 119.738ZM114.523 122.11C113.995 122.11 113.54 121.991 113.159 121.751C112.78 121.51 112.489 121.177 112.285 120.754C112.082 120.33 111.98 119.844 111.98 119.298C111.98 118.744 112.084 118.255 112.293 117.831C112.501 117.405 112.794 117.072 113.173 116.833C113.552 116.594 113.998 116.474 114.512 116.474C114.926 116.474 115.296 116.551 115.62 116.705C115.944 116.857 116.206 117.07 116.405 117.344C116.606 117.619 116.726 117.94 116.763 118.307H115.73C115.673 118.051 115.543 117.831 115.339 117.646C115.138 117.462 114.868 117.369 114.53 117.369C114.234 117.369 113.975 117.447 113.752 117.604C113.532 117.758 113.36 117.978 113.237 118.264C113.114 118.548 113.053 118.884 113.053 119.273C113.053 119.67 113.113 120.014 113.234 120.303C113.354 120.591 113.525 120.815 113.745 120.974C113.968 121.132 114.229 121.212 114.53 121.212C114.731 121.212 114.913 121.175 115.077 121.102C115.242 121.026 115.381 120.918 115.492 120.778C115.606 120.639 115.685 120.471 115.73 120.274H116.763C116.726 120.627 116.611 120.942 116.419 121.219C116.227 121.496 115.97 121.714 115.648 121.872C115.329 122.031 114.954 122.11 114.523 122.11ZM121.245 116.545V117.398H118.266V116.545H121.245ZM119.065 115.239H120.126V120.398C120.126 120.604 120.157 120.759 120.219 120.864C120.28 120.965 120.36 121.035 120.457 121.073C120.556 121.109 120.664 121.126 120.78 121.126C120.865 121.126 120.94 121.121 121.004 121.109C121.068 121.097 121.117 121.087 121.153 121.08L121.345 121.957C121.283 121.981 121.195 122.005 121.082 122.028C120.968 122.054 120.826 122.069 120.656 122.071C120.376 122.076 120.116 122.026 119.874 121.922C119.633 121.818 119.438 121.657 119.288 121.439C119.139 121.221 119.065 120.948 119.065 120.619V115.239ZM123.22 122V116.545H124.281V122H123.22ZM123.756 115.704C123.571 115.704 123.413 115.642 123.28 115.519C123.15 115.394 123.085 115.245 123.085 115.072C123.085 114.897 123.15 114.747 123.28 114.624C123.413 114.499 123.571 114.436 123.756 114.436C123.941 114.436 124.098 114.499 124.228 114.624C124.361 114.747 124.427 114.897 124.427 115.072C124.427 115.245 124.361 115.394 124.228 115.519C124.098 115.642 123.941 115.704 123.756 115.704ZM131.176 116.545L129.198 122H128.062L126.08 116.545H127.22L128.601 120.743H128.658L130.036 116.545H131.176ZM132.974 122V116.545H134.036V122H132.974ZM133.51 115.704C133.325 115.704 133.167 115.642 133.034 115.519C132.904 115.394 132.839 115.245 132.839 115.072C132.839 114.897 132.904 114.747 133.034 114.624C133.167 114.499 133.325 114.436 133.51 114.436C133.695 114.436 133.852 114.499 133.982 114.624C134.115 114.747 134.181 114.897 134.181 115.072C134.181 115.245 134.115 115.394 133.982 115.519C133.852 115.642 133.695 115.704 133.51 115.704ZM138.306 122.107C137.866 122.107 137.473 121.994 137.127 121.769C136.784 121.542 136.514 121.219 136.317 120.8C136.123 120.378 136.026 119.873 136.026 119.283C136.026 118.694 136.124 118.19 136.321 117.771C136.52 117.352 136.792 117.031 137.138 116.808C137.483 116.586 137.875 116.474 138.313 116.474C138.652 116.474 138.924 116.531 139.13 116.645C139.338 116.756 139.499 116.886 139.613 117.036C139.729 117.185 139.819 117.316 139.883 117.43H139.947V114.727H141.008V122H139.972V121.151H139.883C139.819 121.267 139.727 121.4 139.606 121.549C139.487 121.698 139.324 121.828 139.116 121.94C138.907 122.051 138.638 122.107 138.306 122.107ZM138.54 121.201C138.846 121.201 139.104 121.121 139.315 120.96C139.528 120.796 139.689 120.57 139.798 120.281C139.909 119.992 139.964 119.656 139.964 119.273C139.964 118.894 139.91 118.562 139.801 118.278C139.692 117.994 139.532 117.773 139.322 117.614C139.111 117.456 138.851 117.376 138.54 117.376C138.221 117.376 137.955 117.459 137.741 117.625C137.528 117.791 137.367 118.017 137.258 118.303C137.152 118.59 137.099 118.913 137.099 119.273C137.099 119.637 137.153 119.965 137.262 120.256C137.371 120.548 137.532 120.778 137.745 120.949C137.96 121.117 138.226 121.201 138.54 121.201ZM144.911 122.121C144.566 122.121 144.253 122.057 143.974 121.929C143.694 121.799 143.473 121.611 143.31 121.364C143.149 121.118 143.068 120.816 143.068 120.459C143.068 120.151 143.127 119.898 143.246 119.699C143.364 119.5 143.524 119.343 143.725 119.227C143.926 119.111 144.151 119.023 144.4 118.964C144.649 118.905 144.902 118.86 145.16 118.829C145.487 118.791 145.752 118.76 145.955 118.737C146.159 118.71 146.307 118.669 146.399 118.612C146.492 118.555 146.538 118.463 146.538 118.335V118.31C146.538 118 146.45 117.76 146.275 117.589C146.102 117.419 145.844 117.334 145.501 117.334C145.143 117.334 144.862 117.413 144.656 117.572C144.452 117.728 144.311 117.902 144.233 118.094L143.235 117.866C143.354 117.535 143.526 117.268 143.754 117.064C143.983 116.858 144.247 116.709 144.546 116.616C144.844 116.522 145.158 116.474 145.487 116.474C145.704 116.474 145.935 116.5 146.179 116.553C146.425 116.602 146.655 116.695 146.868 116.83C147.083 116.964 147.26 117.157 147.397 117.408C147.534 117.657 147.603 117.98 147.603 118.378V122H146.566V121.254H146.524C146.455 121.392 146.352 121.527 146.215 121.659C146.077 121.792 145.901 121.902 145.685 121.989C145.47 122.077 145.212 122.121 144.911 122.121ZM145.142 121.268C145.436 121.268 145.687 121.21 145.895 121.094C146.106 120.978 146.265 120.827 146.374 120.64C146.486 120.451 146.541 120.248 146.541 120.033V119.33C146.503 119.367 146.43 119.403 146.321 119.436C146.215 119.467 146.093 119.494 145.955 119.518C145.818 119.539 145.684 119.559 145.554 119.578C145.424 119.595 145.315 119.609 145.227 119.621C145.021 119.647 144.833 119.691 144.663 119.752C144.495 119.814 144.36 119.902 144.258 120.018C144.158 120.132 144.109 120.284 144.109 120.473C144.109 120.736 144.206 120.935 144.4 121.07C144.594 121.202 144.841 121.268 145.142 121.268ZM151.859 122.107C151.419 122.107 151.026 121.994 150.68 121.769C150.337 121.542 150.067 121.219 149.871 120.8C149.676 120.378 149.579 119.873 149.579 119.283C149.579 118.694 149.678 118.19 149.874 117.771C150.073 117.352 150.345 117.031 150.691 116.808C151.037 116.586 151.428 116.474 151.866 116.474C152.205 116.474 152.477 116.531 152.683 116.645C152.891 116.756 153.052 116.886 153.166 117.036C153.282 117.185 153.372 117.316 153.436 117.43H153.5V114.727H154.562V122H153.525V121.151H153.436C153.372 121.267 153.28 121.4 153.159 121.549C153.041 121.698 152.877 121.828 152.669 121.94C152.461 122.051 152.191 122.107 151.859 122.107ZM152.094 121.201C152.399 121.201 152.657 121.121 152.868 120.96C153.081 120.796 153.242 120.57 153.351 120.281C153.462 119.992 153.518 119.656 153.518 119.273C153.518 118.894 153.463 118.562 153.354 118.278C153.245 117.994 153.086 117.773 152.875 117.614C152.664 117.456 152.404 117.376 152.094 117.376C151.774 117.376 151.508 117.459 151.295 117.625C151.081 117.791 150.921 118.017 150.812 118.303C150.705 118.59 150.652 118.913 150.652 119.273C150.652 119.637 150.706 119.965 150.815 120.256C150.924 120.548 151.085 120.778 151.298 120.949C151.514 121.117 151.779 121.201 152.094 121.201Z" fill="#878787"/>
</g>
<defs>
<clipPath id="clip0_7_2">
<rect width="165.23" height="123.6" fill="white"/>
</clipPath>
</defs>
</svg>
