<?xml version="1.0" standalone="no"?>
<!DOCTYPE svg PUBLIC "-//W3C//DTD SVG 1.1//EN" "http://www.w3.org/Graphics/SVG/1.1/DTD/svg11.dtd">
<svg xmlns:inkscape="http://www.inkscape.org/namespaces/inkscape" xmlns:sodipodi="http://sodipodi.sourceforge.net/DTD/sodipodi-0.dtd" xmlns="http://www.w3.org/2000/svg" xmlns:svg="http://www.w3.org/2000/svg" version="1.1" id="svg2" width="2000" height="2000" viewBox="0 0 2000 2000" sodipodi:docname="LOGO 2022.ai">
  <defs id="defs6">
    <clipPath clipPathUnits="userSpaceOnUse" id="clipPath16">
      <path d="M 0,1500 H 1500 V 0 H 0 Z" id="path14"/>
    </clipPath>
  </defs>
  <sodipodi:namedview id="namedview4" pagecolor="#ffffff" bordercolor="#000000" borderopacity="0.25" inkscape:showpageshadow="2" inkscape:pageopacity="0.0" inkscape:pagecheckerboard="0" inkscape:deskcolor="#d1d1d1"/>
  <g id="g8" inkscape:groupmode="layer" inkscape:label="LOGO 2022" transform="matrix(1.3333333,0,0,-1.3333333,0,2000)">
    <g id="g10">
      <g id="g12" clip-path="url(#clipPath16)">
        <g id="g18" transform="translate(916.6739,1113.3866)">
          <path d="M 0,0 C -8.856,15.94 -28.485,21.35 -43.805,12.207 L -165.456,-60.66 -287.106,12.207 C -302.472,21.35 -322.055,15.94 -330.862,0 c -8.905,-15.896 -3.687,-36.29 11.68,-45.435 l 89.574,-53.738 -36.432,-21.784 c -15.369,-9.145 -20.588,-29.586 -11.729,-45.482 8.856,-15.942 28.485,-21.398 43.805,-12.207 l 36.432,21.831 V -377.04 c 0,-18.384 14.362,-33.224 32.076,-33.224 17.666,0 32.077,14.84 32.077,33.224 v 220.225 l 36.385,-21.831 c 15.367,-9.191 34.947,-3.735 43.806,12.207 8.905,15.896 3.637,36.337 -11.683,45.482 l -36.432,21.784 89.574,53.738 C 3.638,-36.29 8.856,-15.896 0,0" style="fill:#d31b21;fill-opacity:1;fill-rule:nonzero;stroke:none" id="path20"/>
        </g>
        <g id="g22" transform="translate(1016.0739,514.744)">
          <path d="m 0,0 -0.058,4.458 -0.144,6.184 -0.144,6.156 -0.058,4.459 h -77.895 c -4.574,0 -9.234,-1.036 -14.124,-3.049 -6.271,-2.617 -9.407,-6.041 -9.407,-10.24 V -7.279 c 0,-4.487 3.223,-7.852 9.752,-10.24 4.142,-1.841 8.975,-2.789 14.44,-2.789 h 54.481 c 8.14,0 13.779,0.978 16.828,2.876 C -2.101,-14.757 0,-8.975 0,0 m 21.515,-6.301 c 0,-24.249 -14.929,-36.33 -44.902,-36.33 h -53.647 c -11.505,0 -21.458,2.561 -29.83,7.68 -11.305,6.588 -16.913,15.678 -16.913,27.413 V 7.823 c 0,12.657 5.379,22.121 16.08,28.421 7.968,4.889 17.948,7.363 29.944,7.363 h 77.551 c -1.15,8.515 -11.103,12.743 -29.743,12.743 -0.748,0 -1.641,0 -2.761,-0.086 -1.035,-0.029 -2.273,-0.057 -3.654,-0.172 -0.086,-0.116 -0.432,-0.116 -1.036,-0.116 h -0.948 -1.669 -2.589 c -5.408,0 -8.112,4.143 -8.112,12.514 0,6.644 2.704,9.952 8.112,9.952 17.519,0 30.923,-1.495 40.214,-4.401 15.936,-5.494 23.903,-16.454 23.903,-32.85 z m -157.057,-27.01 c 0,-6.212 -3.078,-9.32 -9.263,-9.32 -5.838,0 -9.377,0.346 -10.585,1.122 l -74.991,45.565 v -36.734 c 0,-4.688 -1.467,-7.738 -4.343,-9.09 -0.92,-0.604 -3.999,-0.863 -9.292,-0.863 -5.408,0 -8.112,3.337 -8.112,9.953 v 134.017 c 0,6.53 2.704,9.838 8.112,9.838 5.091,0 8.169,-0.287 9.377,-0.776 2.848,-1.152 4.258,-4.229 4.258,-9.062 v -69.87 l 74.041,44.959 c 1.87,0.662 5.208,0.978 9.982,0.978 6.127,0 9.263,-3.078 9.263,-9.205 0,-4.026 -1.899,-7.191 -5.668,-9.464 l -67.137,-40.673 68.72,-41.767 c 3.739,-2.272 5.638,-5.495 5.638,-9.608 m -132.148,0.633 c 0,-6.616 -2.703,-9.953 -8.14,-9.953 -5.322,0 -8.4,0.259 -9.291,0.863 -3.049,1.352 -4.515,4.402 -4.515,9.09 v 134.017 c 0,6.53 2.731,9.838 8.139,9.838 5.005,0 8.17,-0.287 9.407,-0.776 2.962,-1.152 4.4,-4.229 4.4,-9.062 z m -56.062,60.609 v 14.871 c 0,9.147 -14.844,13.635 -44.615,13.635 -17.461,0 -29.513,-0.719 -36.043,-2.215 -9.205,-2.1 -13.808,-6.242 -13.808,-12.398 V 27.931 Z m 21.401,-12.11 c 0,-7.364 -1.986,-10.989 -6.099,-10.989 H -417.527 V 3.94 c 0,-11.478 5.58,-18.812 16.684,-22.092 2.387,-0.689 5.897,-1.178 10.527,-1.582 4.632,-0.374 10.472,-0.574 17.634,-0.574 5.378,0 8.082,-4.143 8.082,-12.37 0,-6.616 -2.704,-9.953 -8.082,-9.953 -7.394,0 -13.406,0.029 -18.036,0.174 -4.717,0.085 -8.227,0.372 -10.643,0.689 -12.082,1.524 -20.942,4.977 -26.665,10.327 -8.112,7.681 -12.139,16.713 -12.139,27.039 v 44.557 c 0,14.039 6.212,24.336 18.697,31.096 8.544,4.861 19.847,7.307 33.914,7.307 h 40.962 c 11.506,0 21.027,-2.331 28.563,-6.904 10.471,-5.955 15.678,-14.815 15.678,-26.665 z M -446.84,65.066 c 0,-6.529 -2.732,-9.837 -8.169,-9.837 h -34.747 v -87.907 c 0,-6.616 -2.704,-9.953 -8.112,-9.953 -5.351,0 -8.429,0.259 -9.35,0.863 -2.991,1.352 -4.458,4.402 -4.458,9.09 v 87.907 c -2.933,0 -5.321,0.058 -7.162,0.143 -1.813,0.144 -3.135,0.317 -3.884,0.461 -3.452,1.437 -5.206,4.947 -5.206,10.47 0,5.58 1.754,9.062 5.206,10.499 0.749,0.145 2.071,0.317 3.884,0.461 1.841,0.115 4.229,0.143 7.162,0.143 v 23.933 c 0,6.53 2.675,9.838 8.083,9.838 5.321,0 8.457,-0.317 9.377,-0.92 2.935,-1.266 4.46,-4.229 4.46,-8.918 V 77.406 h 34.747 c 5.437,0 8.169,-4.113 8.169,-12.34 m -91.472,-71.624 c 0,-24.307 -21.229,-36.447 -63.658,-36.447 l -4.545,0.029 c -1.869,0.058 -4.056,0.115 -6.558,0.23 -0.058,0.058 -0.345,0.115 -0.864,0.115 h -0.92 -1.639 -3.049 -4.632 c -35.669,0 -53.473,11.996 -53.473,36.073 V 68.49 c 0,6.644 2.732,9.952 8.14,9.952 5.378,0 8.514,-0.258 9.464,-0.921 2.904,-1.178 4.343,-4.228 4.343,-9.031 V -6.558 c 0,-9.177 10.47,-13.75 31.526,-13.75 h 32.706 c 20.625,0 30.923,4.486 30.923,13.433 V 68.49 c 0,4.803 1.496,7.853 4.43,9.031 0.892,0.663 4.143,0.921 9.579,0.921 5.436,0 8.227,-3.308 8.227,-9.952 z m -96.277,104.819 c 0,-6.644 -2.734,-9.952 -8.112,-9.952 h -51.288 V -32.678 c 0,-6.616 -2.619,-9.953 -7.968,-9.953 -5.495,0 -8.86,0.231 -10.183,0.72 -3.25,1.236 -4.891,4.256 -4.891,9.233 V 88.309 h -50.856 c -5.494,0 -8.227,3.308 -8.227,9.952 0,4.574 0.432,7.71 1.265,9.378 1.122,2.301 3.424,3.538 6.962,3.538 h 125.186 c 5.378,0 8.112,-4.315 8.112,-12.916 M 172.418,-32.678 c 0,-6.616 -2.732,-9.953 -8.227,-9.953 -5.436,0 -8.572,0.259 -9.435,0.863 -3.021,1.267 -4.487,4.345 -4.487,9.09 v 77.034 c 0,5.436 -3.769,9.032 -11.248,10.729 -1.323,0.316 -3.365,0.576 -6.097,0.661 -2.734,0.144 -6.186,0.23 -10.327,0.23 H 84.77 c -3.854,0 -7.047,-0.086 -9.607,-0.258 C 72.516,55.516 70.446,55.315 68.949,54.94 61.872,53.301 58.364,49.677 58.364,44.211 v -76.889 c 0,-6.616 -2.761,-9.953 -8.169,-9.953 -5.38,0 -8.544,0.259 -9.435,0.863 -2.906,1.267 -4.372,4.345 -4.372,9.09 V 44.01 c 0,22.926 16.798,34.432 50.338,34.432 h 35.871 c 33.195,0 49.821,-11.391 49.821,-34.231 z" style="fill:#3d3d3c;fill-opacity:1;fill-rule:nonzero;stroke:none" id="path24"/>
        </g>
        <g id="g26" transform="translate(1234.166,614.2309)">
          <path d="m 0,0 c -11.507,0.029 -20.937,-9.385 -20.95,-20.917 -0.014,-11.495 9.332,-20.874 20.868,-20.941 11.488,-0.067 20.933,9.336 20.981,20.889 C 20.947,-9.467 11.541,-0.029 0,0 m -24.749,-20.889 c 0.011,13.665 11.08,24.7 24.763,24.689 13.665,-0.011 24.697,-11.08 24.684,-24.768 -0.012,-13.691 -11.099,-24.718 -24.822,-24.69 -13.622,0.028 -24.637,11.108 -24.625,24.769" style="fill:#3d3d3c;fill-opacity:1;fill-rule:nonzero;stroke:none" id="path28"/>
        </g>
        <g id="g30" transform="translate(1230.3575,593.3051)">
          <path d="M 0,0 C 1.963,0 3.861,-0.009 5.758,0.008 6.108,0.012 6.467,0.089 6.804,0.192 8.518,0.716 9.683,2.454 9.471,4.141 9.221,6.133 7.713,7.559 5.733,7.599 3.894,7.636 2.054,7.608 0.215,7.604 0.143,7.604 0.071,7.568 0,7.549 Z m 9.229,-3.065 c 0.826,-1.186 1.671,-2.4 2.517,-3.614 0.395,-0.569 0.802,-1.13 1.183,-1.708 0.632,-0.959 0.42,-2.116 -0.482,-2.719 -0.878,-0.588 -2.006,-0.369 -2.663,0.561 -1.438,2.036 -2.871,4.077 -4.27,6.141 -0.316,0.467 -0.648,0.631 -1.206,0.614 -1.42,-0.045 -2.843,-0.015 -4.332,-0.015 0,-1.052 0,-2.056 0,-3.059 0,-0.892 0.01,-1.783 -0.003,-2.675 -0.015,-1.066 -0.838,-1.873 -1.89,-1.876 -1.053,-0.002 -1.9,0.806 -1.901,1.865 -0.008,6.359 -0.007,12.717 -10e-4,19.076 10e-4,1.074 0.806,1.876 1.881,1.879 C 0.736,11.414 3.41,11.435 6.083,11.4 9.8,11.351 13.177,7.987 13.286,4.274 13.377,1.199 12.123,-1.156 9.511,-2.785 9.428,-2.837 9.349,-2.896 9.271,-2.955 9.258,-2.965 9.257,-2.991 9.229,-3.065" style="fill:#3d3d3c;fill-opacity:1;fill-rule:nonzero;stroke:none" id="path32"/>
        </g>
        <g id="g34" transform="translate(331.111,391.7351)">
          <path d="m 0,0 c 0,-1.927 -0.36,-3.682 -1.064,-5.264 -0.705,-1.596 -1.726,-2.977 -3.035,-4.157 -1.323,-1.179 -2.948,-2.099 -4.89,-2.747 -1.942,-0.647 -4.114,-0.963 -6.515,-0.963 -2.388,0 -4.545,0.316 -6.444,0.963 -1.913,0.648 -3.524,1.568 -4.861,2.747 -1.338,1.18 -2.359,2.561 -3.064,4.157 -0.704,1.582 -1.064,3.337 -1.064,5.264 v 29.643 h 5.135 V 0.532 c 0,-3.02 0.863,-5.336 2.588,-6.947 1.726,-1.61 4.272,-2.416 7.652,-2.416 3.38,0.043 5.969,0.892 7.752,2.56 1.784,1.669 2.675,3.941 2.675,6.803 V 29.643 H 0 Z" style="fill:#878787;fill-opacity:1;fill-rule:nonzero;stroke:none" id="path36"/>
        </g>
        <g id="g38" transform="translate(352.1959,410.4181)">
          <path d="m 0,0 v -4.602 h 0.058 c 0.934,1.654 2.272,2.948 3.969,3.897 1.712,0.935 3.653,1.41 5.811,1.41 3.452,0 6.17,-1.021 8.155,-3.064 1.984,-2.042 2.977,-4.789 2.977,-8.255 V -31.11 h -5.005 v 18.612 c 0,1.423 -0.115,2.703 -0.36,3.868 -0.23,1.151 -0.618,2.129 -1.179,2.906 -0.547,0.791 -1.295,1.395 -2.23,1.826 -0.949,0.432 -2.128,0.648 -3.538,0.648 -1.064,0 -2.1,-0.187 -3.121,-0.59 C 4.516,-4.228 3.61,-4.833 2.819,-5.624 2.042,-6.429 1.395,-7.493 0.906,-8.817 0.417,-10.125 0.173,-11.693 0.173,-13.491 V -31.11 H -4.833 V 0 Z" style="fill:#878787;fill-opacity:1;fill-rule:nonzero;stroke:none" id="path40"/>
        </g>
        <g id="g42" transform="translate(434.7232,394.8561)">
          <path d="m 0,0 c 0,1.697 -0.187,3.279 -0.561,4.775 -0.374,1.496 -0.92,2.805 -1.64,3.926 -0.733,1.108 -1.654,2 -2.775,2.647 -1.122,0.647 -2.402,0.963 -3.855,0.963 -1.496,0 -2.819,-0.302 -3.984,-0.934 -1.151,-0.633 -2.129,-1.511 -2.934,-2.618 -0.805,-1.122 -1.424,-2.431 -1.827,-3.926 -0.417,-1.496 -0.618,-3.107 -0.618,-4.833 0,-1.726 0.201,-3.337 0.618,-4.833 0.403,-1.481 1.022,-2.79 1.827,-3.912 0.805,-1.121 1.783,-1.999 2.934,-2.617 1.165,-0.633 2.488,-0.949 3.984,-0.949 1.453,0 2.733,0.33 3.855,0.978 1.121,0.647 2.042,1.524 2.775,2.646 0.72,1.122 1.266,2.431 1.64,3.926 C -0.187,-3.279 0,-1.683 0,0 m -17.906,-27.039 h -5.005 v 42.601 h 4.832 v -4.718 h 0.058 c 1.251,1.885 2.761,3.265 4.501,4.128 1.755,0.863 3.567,1.295 5.451,1.295 2.043,0 3.884,-0.432 5.509,-1.266 C -0.935,14.152 0.446,13.002 1.568,11.52 2.69,10.053 3.538,8.328 4.128,6.371 4.717,4.401 5.005,2.287 5.005,0 c 0,-2.272 -0.302,-4.401 -0.906,-6.386 -0.604,-1.985 -1.467,-3.696 -2.589,-5.149 -1.122,-1.467 -2.517,-2.603 -4.185,-3.452 -1.669,-0.848 -3.524,-1.265 -5.566,-1.265 -1.884,0 -3.639,0.374 -5.25,1.122 -1.611,0.747 -3.035,2.042 -4.3,3.883 h -0.115 z" style="fill:#878787;fill-opacity:1;fill-rule:nonzero;stroke:none" id="path44"/>
        </g>
        <g id="g46" transform="translate(471.37,395.1006)">
          <path d="m 0,0 c -1.769,0 -3.466,-0.101 -5.091,-0.302 -1.64,-0.187 -3.064,-0.532 -4.301,-0.992 -1.237,-0.475 -2.258,-1.18 -3.035,-2.1 -0.791,-0.921 -1.179,-2.071 -1.179,-3.438 -0.043,-1.654 0.417,-3.02 1.381,-4.099 0.963,-1.078 2.402,-1.625 4.329,-1.625 1.525,0 2.891,0.273 4.07,0.805 1.18,0.518 2.143,1.252 2.906,2.172 0.776,0.921 1.351,1.971 1.74,3.15 0.388,1.179 0.59,2.445 0.59,3.768 L 1.41,0 Z m 1.41,4.358 c 0.086,5.149 -2.431,7.709 -7.537,7.709 -1.266,0 -2.574,-0.158 -3.955,-0.46 -1.367,-0.317 -2.704,-0.777 -3.999,-1.367 l -1.121,3.956 c 1.222,0.503 2.675,0.934 4.386,1.294 1.712,0.36 3.351,0.532 4.919,0.532 3.768,0.043 6.76,-0.863 8.961,-2.718 2.2,-1.841 3.322,-4.646 3.351,-8.414 V -8.716 c 0,-1.035 0.057,-2.2 0.158,-3.509 0.086,-1.323 0.244,-2.503 0.431,-3.567 H 2.589 c -0.36,1.294 -0.59,2.848 -0.705,4.66 H 1.769 c -0.863,-1.539 -2.1,-2.805 -3.711,-3.812 -1.61,-0.992 -3.696,-1.51 -6.242,-1.553 -1.308,0 -2.56,0.173 -3.782,0.532 -1.208,0.345 -2.302,0.906 -3.265,1.669 -0.964,0.776 -1.74,1.74 -2.33,2.919 -0.59,1.18 -0.877,2.589 -0.877,4.243 0.028,2.244 0.56,4.056 1.582,5.451 1.021,1.395 2.473,2.488 4.329,3.265 1.869,0.791 3.998,1.323 6.371,1.597 2.373,0.273 4.89,0.417 7.566,0.417 z" style="fill:#878787;fill-opacity:1;fill-rule:nonzero;stroke:none" id="path48"/>
        </g>
        <g id="g50" transform="translate(511.4975,405.5855)">
          <path d="m 0,0 c -1.266,0.59 -2.531,0.992 -3.797,1.237 -1.28,0.23 -2.589,0.345 -3.926,0.345 -0.705,0 -1.41,-0.057 -2.086,-0.201 -0.69,-0.144 -1.323,-0.36 -1.884,-0.676 -0.575,-0.317 -1.036,-0.763 -1.395,-1.323 -0.345,-0.576 -0.518,-1.266 -0.518,-2.1 0,-0.662 0.101,-1.252 0.316,-1.755 0.216,-0.518 0.59,-0.992 1.122,-1.453 0.533,-0.445 1.208,-0.877 2.028,-1.294 0.834,-0.417 1.87,-0.849 3.121,-1.323 1.496,-0.547 2.834,-1.122 4.013,-1.712 1.179,-0.589 2.201,-1.251 3.064,-1.97 0.863,-0.734 1.524,-1.582 1.97,-2.56 0.446,-0.993 0.676,-2.129 0.676,-3.423 0,-1.654 -0.331,-3.035 -1.007,-4.186 -0.661,-1.136 -1.539,-2.042 -2.617,-2.704 -1.079,-0.676 -2.302,-1.15 -3.654,-1.438 -1.352,-0.302 -2.718,-0.446 -4.084,-0.446 -1.539,0 -3.251,0.173 -5.135,0.532 -1.884,0.346 -3.653,0.921 -5.293,1.698 l 1.295,3.955 c 1.639,-0.748 3.279,-1.309 4.89,-1.683 1.611,-0.374 3.063,-0.561 4.358,-0.561 1.798,-0.029 3.308,0.288 4.501,0.978 1.194,0.69 1.813,1.87 1.856,3.567 -0.043,1.453 -0.691,2.632 -1.942,3.552 -1.251,0.935 -3.121,1.827 -5.595,2.69 -2.79,0.978 -4.933,2.172 -6.429,3.596 -1.481,1.409 -2.258,3.221 -2.286,5.422 0.028,1.568 0.359,2.891 0.963,3.969 0.619,1.079 1.424,1.971 2.445,2.676 1.021,0.719 2.158,1.237 3.423,1.596 1.252,0.36 2.546,0.532 3.884,0.532 1.654,0 3.264,-0.144 4.832,-0.417 1.568,-0.273 2.92,-0.705 4.07,-1.294 z" style="fill:#878787;fill-opacity:1;fill-rule:nonzero;stroke:none" id="path52"/>
        </g>
        <g id="g54" transform="translate(551.3085,394.9136)">
          <path d="m 0,0 c 0,1.812 -0.187,3.466 -0.561,4.962 -0.374,1.481 -0.935,2.776 -1.697,3.855 -0.777,1.078 -1.755,1.927 -2.948,2.531 -1.209,0.604 -2.604,0.906 -4.215,0.906 -1.61,0 -3.02,-0.302 -4.214,-0.906 -1.193,-0.604 -2.186,-1.453 -2.948,-2.531 -0.762,-1.079 -1.338,-2.374 -1.712,-3.855 -0.374,-1.496 -0.546,-3.15 -0.546,-4.962 0,-1.798 0.187,-3.466 0.575,-4.976 0.403,-1.511 0.978,-2.819 1.74,-3.912 0.777,-1.108 1.741,-1.956 2.92,-2.561 1.179,-0.618 2.575,-0.92 4.185,-0.92 1.611,0 3.006,0.302 4.215,0.92 1.193,0.605 2.171,1.453 2.948,2.561 0.762,1.093 1.323,2.401 1.697,3.912 C -0.187,-3.466 0,-1.798 0,0 m 5.005,0 c 0,-2.546 -0.331,-4.818 -0.992,-6.832 -0.676,-1.999 -1.64,-3.71 -2.891,-5.12 -1.251,-1.409 -2.762,-2.488 -4.531,-3.236 -1.769,-0.748 -3.768,-1.122 -6.012,-1.122 -2.243,0 -4.242,0.374 -6.011,1.122 -1.77,0.748 -3.28,1.827 -4.531,3.236 -1.266,1.41 -2.229,3.121 -2.891,5.12 -0.662,2.014 -1.007,4.286 -1.007,6.832 0,2.517 0.345,4.789 1.036,6.817 0.69,2.014 1.639,3.711 2.862,5.092 1.208,1.366 2.718,2.43 4.531,3.178 1.812,0.748 3.811,1.122 6.011,1.122 2.244,0 4.243,-0.374 6.041,-1.122 1.784,-0.748 3.294,-1.812 4.531,-3.178 C 2.388,10.528 3.337,8.831 4.013,6.817 4.674,4.789 5.005,2.517 5.005,0" style="fill:#878787;fill-opacity:1;fill-rule:nonzero;stroke:none" id="path56"/>
        </g>
        <g id="g58" transform="translate(610.2196,395.1006)">
          <path d="m 0,0 c -1.769,0 -3.466,-0.101 -5.091,-0.302 -1.64,-0.187 -3.064,-0.532 -4.301,-0.992 -1.237,-0.475 -2.258,-1.18 -3.035,-2.1 -0.791,-0.921 -1.179,-2.071 -1.179,-3.438 -0.043,-1.654 0.417,-3.02 1.381,-4.099 0.963,-1.078 2.402,-1.625 4.329,-1.625 1.524,0 2.891,0.273 4.07,0.805 1.18,0.518 2.143,1.252 2.906,2.172 0.776,0.921 1.351,1.971 1.74,3.15 0.388,1.179 0.589,2.445 0.589,3.768 l 0,2.661 z m 1.409,4.358 c 0.087,5.149 -2.43,7.709 -7.536,7.709 -1.266,0 -2.574,-0.158 -3.955,-0.46 -1.367,-0.317 -2.704,-0.777 -3.999,-1.367 l -1.121,3.956 c 1.222,0.503 2.675,0.934 4.386,1.294 1.712,0.36 3.351,0.532 4.919,0.532 3.768,0.043 6.76,-0.863 8.96,-2.718 C 5.264,11.463 6.386,8.658 6.415,4.89 V -8.716 c 0,-1.035 0.057,-2.2 0.158,-3.509 0.086,-1.323 0.244,-2.503 0.431,-3.567 H 2.589 c -0.36,1.294 -0.59,2.848 -0.705,4.66 H 1.769 c -0.863,-1.539 -2.1,-2.805 -3.711,-3.812 -1.61,-0.992 -3.696,-1.51 -6.242,-1.553 -1.308,0 -2.56,0.173 -3.782,0.532 -1.208,0.345 -2.302,0.906 -3.265,1.669 -0.964,0.776 -1.74,1.74 -2.33,2.919 -0.59,1.18 -0.877,2.589 -0.877,4.243 0.028,2.244 0.56,4.056 1.582,5.451 1.021,1.395 2.473,2.488 4.329,3.265 1.869,0.791 3.998,1.323 6.371,1.597 2.373,0.273 4.89,0.417 7.565,0.417 z" style="fill:#878787;fill-opacity:1;fill-rule:nonzero;stroke:none" id="path60"/>
        </g>
        <path d="m 660.587,379.309 h -5.005 v 43.306 h 5.005 z" style="fill:#878787;fill-opacity:1;fill-rule:nonzero;stroke:none" id="path62"/>
        <g id="g64" transform="translate(693.8112,395.1006)">
          <path d="m 0,0 c -1.769,0 -3.466,-0.101 -5.091,-0.302 -1.64,-0.187 -3.064,-0.532 -4.301,-0.992 -1.237,-0.475 -2.258,-1.18 -3.035,-2.1 -0.791,-0.921 -1.179,-2.071 -1.179,-3.438 -0.043,-1.654 0.417,-3.02 1.381,-4.099 0.963,-1.078 2.402,-1.625 4.329,-1.625 1.525,0 2.891,0.273 4.07,0.805 1.18,0.518 2.143,1.252 2.906,2.172 0.776,0.921 1.351,1.971 1.74,3.15 0.388,1.179 0.589,2.445 0.589,3.768 l 0,2.661 z m 1.409,4.358 c 0.087,5.149 -2.43,7.709 -7.536,7.709 -1.266,0 -2.574,-0.158 -3.955,-0.46 -1.367,-0.317 -2.704,-0.777 -3.999,-1.367 l -1.121,3.956 c 1.222,0.503 2.675,0.934 4.386,1.294 1.712,0.36 3.351,0.532 4.919,0.532 3.768,0.043 6.76,-0.863 8.96,-2.718 C 5.264,11.463 6.386,8.658 6.415,4.89 V -8.716 c 0,-1.035 0.057,-2.2 0.158,-3.509 0.086,-1.323 0.244,-2.503 0.431,-3.567 H 2.589 c -0.36,1.294 -0.59,2.848 -0.705,4.66 H 1.769 c -0.863,-1.539 -2.1,-2.805 -3.711,-3.812 -1.61,-0.992 -3.696,-1.51 -6.242,-1.553 -1.308,0 -2.56,0.173 -3.782,0.532 -1.208,0.345 -2.302,0.906 -3.265,1.669 -0.964,0.776 -1.74,1.74 -2.33,2.919 -0.59,1.18 -0.877,2.589 -0.877,4.243 0.028,2.244 0.56,4.056 1.582,5.451 1.021,1.395 2.473,2.488 4.329,3.265 1.87,0.791 3.998,1.323 6.371,1.597 2.373,0.273 4.89,0.417 7.565,0.417 z" style="fill:#878787;fill-opacity:1;fill-rule:nonzero;stroke:none" id="path66"/>
        </g>
        <g id="g68" transform="translate(762.0854,394.8561)">
          <path d="m 0,0 c 0,1.697 -0.187,3.279 -0.561,4.775 -0.374,1.496 -0.92,2.805 -1.64,3.926 -0.733,1.108 -1.654,2 -2.775,2.647 -1.122,0.647 -2.402,0.963 -3.855,0.963 -1.496,0 -2.819,-0.302 -3.984,-0.934 -1.151,-0.633 -2.128,-1.511 -2.934,-2.618 -0.805,-1.122 -1.424,-2.431 -1.827,-3.926 -0.417,-1.496 -0.618,-3.107 -0.618,-4.833 0,-1.726 0.201,-3.337 0.618,-4.833 0.403,-1.481 1.022,-2.79 1.827,-3.912 0.806,-1.121 1.783,-1.999 2.934,-2.617 1.165,-0.633 2.488,-0.949 3.984,-0.949 1.453,0 2.733,0.33 3.855,0.978 1.121,0.647 2.042,1.524 2.775,2.646 0.72,1.122 1.266,2.431 1.64,3.926 C -0.187,-3.279 0,-1.683 0,0 m -17.906,-27.039 h -5.005 v 42.601 h 4.832 v -4.718 h 0.058 c 1.251,1.885 2.761,3.265 4.501,4.128 1.755,0.863 3.567,1.295 5.451,1.295 2.043,0 3.884,-0.432 5.509,-1.266 C -0.935,14.152 0.446,13.002 1.568,11.52 2.69,10.053 3.538,8.328 4.128,6.371 4.717,4.401 5.005,2.287 5.005,0 c 0,-2.272 -0.302,-4.401 -0.906,-6.386 -0.604,-1.985 -1.467,-3.696 -2.589,-5.149 -1.122,-1.467 -2.517,-2.603 -4.185,-3.452 -1.669,-0.848 -3.524,-1.265 -5.566,-1.265 -1.884,0 -3.639,0.374 -5.25,1.122 -1.611,0.747 -3.035,2.042 -4.3,3.883 h -0.115 z" style="fill:#878787;fill-opacity:1;fill-rule:nonzero;stroke:none" id="path70"/>
        </g>
        <g id="g72" transform="translate(797.2509,406.995)">
          <path d="m 0,0 c -0.705,0.115 -1.568,0.173 -2.589,0.173 -1.064,0 -2.028,-0.159 -2.92,-0.489 -0.877,-0.346 -1.668,-0.892 -2.344,-1.654 -0.69,-0.763 -1.222,-1.755 -1.596,-2.978 -0.374,-1.222 -0.561,-2.732 -0.561,-4.53 v -18.208 h -5.005 V 3.423 h 4.832 v -4.185 h 0.058 c 0.748,1.654 1.783,2.876 3.121,3.682 1.337,0.805 3.006,1.208 5.005,1.208 0.273,0 0.647,-0.015 1.122,-0.029 0.474,-0.029 0.848,-0.057 1.122,-0.086 z" style="fill:#878787;fill-opacity:1;fill-rule:nonzero;stroke:none" id="path74"/>
        </g>
        <g id="g76" transform="translate(831.0068,394.9136)">
          <path d="m 0,0 c 0,1.812 -0.187,3.466 -0.561,4.962 -0.374,1.481 -0.935,2.776 -1.697,3.855 -0.777,1.078 -1.755,1.927 -2.948,2.531 -1.209,0.604 -2.604,0.906 -4.215,0.906 -1.61,0 -3.02,-0.302 -4.214,-0.906 -1.193,-0.604 -2.186,-1.453 -2.948,-2.531 -0.762,-1.079 -1.338,-2.374 -1.712,-3.855 -0.374,-1.496 -0.546,-3.15 -0.546,-4.962 0,-1.798 0.187,-3.466 0.575,-4.976 0.403,-1.511 0.978,-2.819 1.74,-3.912 0.777,-1.108 1.741,-1.956 2.92,-2.561 1.179,-0.618 2.575,-0.92 4.185,-0.92 1.611,0 3.006,0.302 4.215,0.92 1.193,0.605 2.171,1.453 2.948,2.561 0.762,1.093 1.323,2.401 1.697,3.912 C -0.187,-3.466 0,-1.798 0,0 m 5.005,0 c 0,-2.546 -0.331,-4.818 -0.992,-6.832 -0.676,-1.999 -1.64,-3.71 -2.891,-5.12 -1.251,-1.409 -2.762,-2.488 -4.531,-3.236 -1.769,-0.748 -3.768,-1.122 -6.012,-1.122 -2.243,0 -4.242,0.374 -6.011,1.122 -1.77,0.748 -3.28,1.827 -4.531,3.236 -1.266,1.41 -2.229,3.121 -2.891,5.12 -0.662,2.014 -1.007,4.286 -1.007,6.832 0,2.517 0.345,4.789 1.036,6.817 0.69,2.014 1.639,3.711 2.862,5.092 1.208,1.366 2.718,2.43 4.531,3.178 1.812,0.748 3.811,1.122 6.011,1.122 2.244,0 4.243,-0.374 6.041,-1.122 1.784,-0.748 3.294,-1.812 4.531,-3.178 C 2.388,10.528 3.337,8.831 4.013,6.817 4.674,4.789 5.005,2.517 5.005,0" style="fill:#878787;fill-opacity:1;fill-rule:nonzero;stroke:none" id="path78"/>
        </g>
        <g id="g80" transform="translate(854.5942,394.9136)">
          <path d="m 0,0 c 0,-1.683 0.173,-3.279 0.547,-4.761 0.373,-1.495 0.934,-2.804 1.654,-3.926 0.733,-1.122 1.654,-2.014 2.775,-2.675 1.108,-0.676 2.417,-1.007 3.912,-1.007 1.496,0 2.819,0.331 3.984,0.978 1.151,0.647 2.129,1.525 2.934,2.646 0.806,1.122 1.424,2.431 1.827,3.927 0.417,1.481 0.619,3.092 0.619,4.818 0,1.74 -0.202,3.351 -0.619,4.833 -0.403,1.495 -1.021,2.79 -1.827,3.897 -0.805,1.093 -1.783,1.956 -2.934,2.589 -1.165,0.633 -2.488,0.935 -3.984,0.935 -1.452,0 -2.747,-0.316 -3.883,-0.964 C 3.855,10.643 2.934,9.751 2.201,8.644 1.481,7.522 0.92,6.228 0.547,4.746 0.173,3.279 0,1.697 0,0 m 17.964,27.701 h 5.005 v -43.306 h -4.833 v 4.717 h -0.115 c -1.222,-1.812 -2.689,-3.164 -4.415,-4.07 -1.726,-0.906 -3.553,-1.352 -5.48,-1.352 -2.042,0 -3.883,0.417 -5.508,1.266 -1.64,0.848 -3.006,1.985 -4.128,3.452 -1.122,1.452 -1.985,3.178 -2.589,5.177 -0.618,2 -0.921,4.143 -0.921,6.415 0,2.287 0.317,4.415 0.95,6.4 0.633,1.985 1.51,3.682 2.646,5.12 1.136,1.439 2.531,2.575 4.185,3.424 1.654,0.834 3.495,1.265 5.538,1.265 1.927,0 3.682,-0.388 5.278,-1.15 1.582,-0.763 3.006,-2.028 4.272,-3.797 h 0.115 z" style="fill:#878787;fill-opacity:1;fill-rule:nonzero;stroke:none" id="path82"/>
        </g>
        <g id="g84" transform="translate(914.8573,379.3085)">
          <path d="m 0,0 v 4.588 h -0.072 c -0.935,-1.64 -2.258,-2.934 -3.97,-3.883 -1.711,-0.935 -3.638,-1.41 -5.796,-1.41 -3.538,0.043 -6.271,1.065 -8.198,3.093 -1.927,2.013 -2.905,4.76 -2.948,8.212 v 20.51 h 5.019 V 12.484 c 0,-1.453 0.115,-2.747 0.345,-3.883 0.245,-1.136 0.633,-2.1 1.18,-2.891 0.546,-0.777 1.294,-1.395 2.244,-1.827 0.934,-0.431 2.114,-0.647 3.523,-0.647 1.065,0 2.115,0.201 3.136,0.59 1.021,0.402 1.913,0.992 2.704,1.798 0.791,0.805 1.424,1.869 1.913,3.178 0.489,1.323 0.733,2.877 0.733,4.689 V 31.11 H 4.818 L 4.818,0 Z" style="fill:#878787;fill-opacity:1;fill-rule:nonzero;stroke:none" id="path86"/>
        </g>
        <g id="g88" transform="translate(956.7825,405.8732)">
          <path d="m 0,0 c -1.884,0.863 -3.926,1.294 -6.127,1.294 -1.726,0 -3.265,-0.316 -4.617,-0.963 -1.366,-0.647 -2.502,-1.539 -3.423,-2.647 -0.92,-1.121 -1.625,-2.43 -2.085,-3.926 -0.475,-1.496 -0.705,-3.107 -0.705,-4.833 0,-1.682 0.23,-3.279 0.705,-4.775 0.46,-1.481 1.15,-2.775 2.056,-3.883 0.907,-1.093 2.028,-1.97 3.395,-2.618 1.352,-0.647 2.905,-0.978 4.674,-0.978 1.136,0 2.186,0.087 3.121,0.274 0.949,0.172 1.985,0.517 3.121,1.021 l 0.834,-3.941 c -1.265,-0.475 -2.459,-0.805 -3.595,-1.007 -1.137,-0.187 -2.316,-0.287 -3.539,-0.287 -2.588,0 -4.875,0.417 -6.831,1.237 -1.971,0.819 -3.61,1.956 -4.919,3.379 -1.323,1.439 -2.316,3.15 -3.006,5.135 -0.69,1.985 -1.036,4.128 -1.036,6.443 0,2.359 0.374,4.545 1.094,6.544 0.733,2 1.769,3.726 3.121,5.149 1.351,1.439 3.005,2.561 4.947,3.395 1.942,0.82 4.142,1.237 6.573,1.237 2.833,0 5.278,-0.432 7.364,-1.295 z" style="fill:#878787;fill-opacity:1;fill-rule:nonzero;stroke:none" id="path90"/>
        </g>
        <g id="g92" transform="translate(968.4612,410.4181)">
          <path d="m 0,0 h 5.537 v 7.824 h 5.005 V 0 h 7.192 v -3.955 h -7.192 v -18.611 c 0,-1.065 0.044,-1.913 0.115,-2.56 0.087,-0.648 0.259,-1.165 0.533,-1.539 0.273,-0.374 0.676,-0.619 1.208,-0.734 0.532,-0.115 1.222,-0.172 2.085,-0.172 0.676,0 1.252,0.014 1.741,0.057 0.489,0.043 1.021,0.101 1.567,0.173 v -3.769 c -0.546,-0.071 -1.265,-0.172 -2.157,-0.258 -0.877,-0.101 -1.74,-0.159 -2.56,-0.159 -1.611,0 -2.906,0.187 -3.884,0.561 -0.978,0.374 -1.754,0.95 -2.301,1.712 -0.546,0.762 -0.906,1.683 -1.093,2.732 -0.172,1.065 -0.259,2.287 -0.259,3.654 v 18.913 l -5.537,0 z" style="fill:#878787;fill-opacity:1;fill-rule:nonzero;stroke:none" id="path94"/>
        </g>
        <path d="m 1005.036,379.309 h -5.005 v 31.11 h 5.005 z m 0.173,37.639 h -5.35 v 5.192 h 5.35 z" style="fill:#878787;fill-opacity:1;fill-rule:nonzero;stroke:none" id="path96"/>
        <g id="g98" transform="translate(1031.8884,383.6089)">
          <path d="m 0,0 h 0.13 l 9.19,26.809 h 5.293 L 2.891,-4.3 h -5.825 l -11.664,31.109 h 5.479 z" style="fill:#878787;fill-opacity:1;fill-rule:nonzero;stroke:none" id="path100"/>
        </g>
        <path d="m 1063.775,379.309 h -5.005 v 31.11 h 5.005 z m 0.172,37.639 h -5.35 v 5.192 h 5.35 z" style="fill:#878787;fill-opacity:1;fill-rule:nonzero;stroke:none" id="path102"/>
        <g id="g104" transform="translate(1083.9247,394.9136)">
          <path d="m 0,0 c 0,-1.683 0.173,-3.279 0.547,-4.761 0.374,-1.495 0.934,-2.804 1.654,-3.926 0.733,-1.122 1.653,-2.014 2.775,-2.675 1.108,-0.676 2.417,-1.007 3.912,-1.007 1.496,0 2.819,0.331 3.984,0.978 1.151,0.647 2.129,1.525 2.935,2.646 0.805,1.122 1.423,2.431 1.826,3.927 0.417,1.481 0.618,3.092 0.618,4.818 0,1.74 -0.201,3.351 -0.618,4.833 -0.403,1.495 -1.021,2.79 -1.826,3.897 -0.806,1.093 -1.784,1.956 -2.935,2.589 -1.165,0.633 -2.488,0.935 -3.984,0.935 -1.452,0 -2.747,-0.316 -3.883,-0.964 C 3.854,10.643 2.934,9.751 2.201,8.644 1.481,7.522 0.921,6.228 0.547,4.746 0.173,3.279 0,1.697 0,0 m 17.964,27.701 h 5.005 v -43.306 h -4.833 v 4.717 h -0.115 c -1.222,-1.812 -2.689,-3.164 -4.415,-4.07 -1.726,-0.906 -3.553,-1.352 -5.48,-1.352 -2.042,0 -3.883,0.417 -5.508,1.266 -1.64,0.848 -3.006,1.985 -4.128,3.452 -1.122,1.452 -1.985,3.178 -2.589,5.177 -0.619,2 -0.921,4.143 -0.921,6.415 0,2.287 0.317,4.415 0.95,6.4 0.632,1.985 1.51,3.682 2.646,5.12 1.136,1.439 2.531,2.575 4.185,3.424 1.654,0.834 3.495,1.265 5.538,1.265 1.927,0 3.682,-0.388 5.278,-1.15 1.582,-0.763 3.006,-2.028 4.272,-3.797 h 0.115 z" style="fill:#878787;fill-opacity:1;fill-rule:nonzero;stroke:none" id="path106"/>
        </g>
        <g id="g108" transform="translate(1140.0599,395.1006)">
          <path d="m 0,0 c -1.769,0 -3.466,-0.101 -5.091,-0.302 -1.64,-0.187 -3.064,-0.532 -4.301,-0.992 -1.237,-0.475 -2.258,-1.18 -3.035,-2.1 -0.791,-0.921 -1.179,-2.071 -1.179,-3.438 -0.043,-1.654 0.417,-3.02 1.381,-4.099 0.963,-1.078 2.402,-1.625 4.329,-1.625 1.525,0 2.891,0.273 4.07,0.805 1.18,0.518 2.143,1.252 2.905,2.172 0.777,0.921 1.353,1.971 1.741,3.15 0.388,1.179 0.59,2.445 0.59,3.768 L 1.41,0 Z m 1.41,4.358 c 0.086,5.149 -2.431,7.709 -7.537,7.709 -1.266,0 -2.574,-0.158 -3.955,-0.46 -1.366,-0.317 -2.704,-0.777 -3.999,-1.367 l -1.121,3.956 c 1.222,0.503 2.675,0.934 4.386,1.294 1.712,0.36 3.351,0.532 4.919,0.532 3.768,0.043 6.76,-0.863 8.96,-2.718 C 5.264,11.463 6.386,8.658 6.415,4.89 V -8.716 c 0,-1.035 0.057,-2.2 0.158,-3.509 0.086,-1.323 0.244,-2.503 0.431,-3.567 H 2.589 c -0.36,1.294 -0.59,2.848 -0.705,4.66 H 1.769 c -0.863,-1.539 -2.1,-2.805 -3.711,-3.812 -1.61,-0.992 -3.696,-1.51 -6.242,-1.553 -1.309,0 -2.56,0.173 -3.782,0.532 -1.208,0.345 -2.302,0.906 -3.265,1.669 -0.964,0.776 -1.74,1.74 -2.33,2.919 -0.59,1.18 -0.877,2.589 -0.877,4.243 0.028,2.244 0.56,4.056 1.582,5.451 1.021,1.395 2.473,2.488 4.329,3.265 1.87,0.791 3.998,1.323 6.371,1.597 2.373,0.273 4.89,0.417 7.566,0.417 z" style="fill:#878787;fill-opacity:1;fill-rule:nonzero;stroke:none" id="path110"/>
        </g>
        <g id="g112" transform="translate(1166.5814,394.9136)">
          <path d="m 0,0 c 0,-1.683 0.173,-3.279 0.547,-4.761 0.374,-1.495 0.934,-2.804 1.654,-3.926 0.733,-1.122 1.654,-2.014 2.775,-2.675 1.108,-0.676 2.417,-1.007 3.912,-1.007 1.496,0 2.819,0.331 3.984,0.978 1.151,0.647 2.129,1.525 2.935,2.646 0.805,1.122 1.423,2.431 1.826,3.927 0.417,1.481 0.619,3.092 0.619,4.818 0,1.74 -0.202,3.351 -0.619,4.833 -0.403,1.495 -1.021,2.79 -1.826,3.897 -0.806,1.093 -1.784,1.956 -2.935,2.589 -1.165,0.633 -2.488,0.935 -3.984,0.935 -1.452,0 -2.747,-0.316 -3.883,-0.964 C 3.855,10.643 2.934,9.751 2.201,8.644 1.481,7.522 0.921,6.228 0.547,4.746 0.173,3.279 0,1.697 0,0 m 17.964,27.701 h 5.005 v -43.306 h -4.833 v 4.717 h -0.115 c -1.222,-1.812 -2.689,-3.164 -4.415,-4.07 -1.726,-0.906 -3.553,-1.352 -5.48,-1.352 -2.042,0 -3.883,0.417 -5.508,1.266 -1.64,0.848 -3.006,1.985 -4.128,3.452 -1.122,1.452 -1.985,3.178 -2.589,5.177 -0.618,2 -0.921,4.143 -0.921,6.415 0,2.287 0.317,4.415 0.95,6.4 0.633,1.985 1.51,3.682 2.646,5.12 1.136,1.439 2.532,2.575 4.185,3.424 1.655,0.834 3.495,1.265 5.538,1.265 1.927,0 3.682,-0.388 5.278,-1.15 1.582,-0.763 3.006,-2.028 4.272,-3.797 h 0.115 z" style="fill:#878787;fill-opacity:1;fill-rule:nonzero;stroke:none" id="path114"/>
        </g>
      </g>
    </g>
  </g>
</svg>
