<svg width="200" height="200" viewBox="0 0 200 200" fill="none" xmlns="http://www.w3.org/2000/svg">
<mask id="mask0_7_2" style="mask-type:luminance" maskUnits="userSpaceOnUse" x="10" y="10" width="180" height="180">
<path d="M10 10H190V190H10V10Z" fill="white"/>
</mask>
<g mask="url(#mask0_7_2)">
<path d="M120.001 56.3935C118.938 54.4807 116.583 53.8315 114.744 54.9287L100.146 63.6727L85.5482 54.9287C83.7043 53.8315 81.3543 54.4807 80.2975 56.3935C79.2289 58.301 79.855 60.7483 81.6991 61.8457L92.4479 68.2943L88.0761 70.9083C86.2318 72.0057 85.6055 74.4587 86.6686 76.3662C87.7313 78.2792 90.0868 78.9339 91.9252 77.831L96.2971 75.2113V101.638C96.2971 103.844 98.0205 105.625 100.146 105.625C102.266 105.625 103.995 103.844 103.995 101.638V75.2113L108.362 77.831C110.206 78.9339 112.555 78.2792 113.618 76.3662C114.687 74.4587 114.055 72.0057 112.216 70.9083L107.845 68.2943L118.593 61.8457C120.437 60.7483 121.064 58.301 120.001 56.3935Z" fill="#D31B21"/>
<path d="M131.929 128.231L131.922 127.696L131.905 126.954L131.887 126.215L131.88 125.68H122.533C121.984 125.68 121.425 125.804 120.838 126.046C120.086 126.36 119.709 126.771 119.709 127.274V129.104C119.709 129.643 120.096 130.046 120.88 130.333C121.377 130.554 121.957 130.668 122.612 130.668H129.15C130.127 130.668 130.804 130.55 131.169 130.322C131.677 130.001 131.929 129.308 131.929 128.231ZM134.511 128.987C134.511 131.897 132.719 133.346 129.122 133.346H122.685C121.304 133.346 120.11 133.039 119.105 132.425C117.749 131.634 117.076 130.543 117.076 129.135V127.292C117.076 125.773 117.721 124.637 119.005 123.881C119.961 123.295 121.159 122.998 122.599 122.998H131.905C131.767 121.976 130.572 121.469 128.335 121.469C128.246 121.469 128.139 121.469 128.004 121.479C127.88 121.482 127.731 121.486 127.566 121.5C127.555 121.513 127.514 121.513 127.441 121.513H127.328H127.127H126.817C126.168 121.513 125.843 121.016 125.843 120.012C125.843 119.215 126.168 118.818 126.817 118.818C128.919 118.818 130.527 118.997 131.642 119.346C133.555 120.005 134.511 121.32 134.511 123.288V128.987ZM115.664 132.228C115.664 132.973 115.294 133.346 114.552 133.346C113.852 133.346 113.427 133.305 113.282 133.212L104.283 127.744V132.152C104.283 132.715 104.107 133.081 103.762 133.243C103.652 133.315 103.282 133.346 102.647 133.346C101.998 133.346 101.674 132.946 101.674 132.152V116.07C101.674 115.286 101.998 114.889 102.647 114.889C103.258 114.889 103.627 114.924 103.772 114.982C104.114 115.121 104.283 115.49 104.283 116.07V124.454L113.168 119.059C113.392 118.98 113.793 118.942 114.366 118.942C115.101 118.942 115.477 119.311 115.477 120.046C115.477 120.53 115.25 120.909 114.797 121.182L106.741 126.063L114.987 131.075C115.436 131.348 115.664 131.734 115.664 132.228ZM99.8061 132.152C99.8061 132.946 99.4817 133.346 98.8293 133.346C98.1906 133.346 97.8213 133.315 97.7144 133.243C97.3485 133.081 97.1726 132.715 97.1726 132.152V116.07C97.1726 115.286 97.5003 114.889 98.1492 114.889C98.7498 114.889 99.1296 114.924 99.2781 114.982C99.6335 115.121 99.8061 115.49 99.8061 116.07V132.152ZM93.0786 124.879V123.094C93.0786 121.997 91.2974 121.458 87.7248 121.458C85.6295 121.458 84.1833 121.544 83.3997 121.724C82.2951 121.976 81.7427 122.473 81.7427 123.212V124.879H93.0786ZM95.6468 126.332C95.6468 127.216 95.4084 127.651 94.9149 127.651H81.8256V127.758C81.8256 129.135 82.4952 130.015 83.8277 130.409C84.1142 130.492 84.5354 130.55 85.091 130.599C85.6468 130.644 86.3476 130.668 87.207 130.668C87.8524 130.668 88.1769 131.165 88.1769 132.152C88.1769 132.946 87.8524 133.346 87.207 133.346C86.3198 133.346 85.5983 133.343 85.0427 133.325C84.4767 133.315 84.0555 133.281 83.7656 133.243C82.3157 133.06 81.2525 132.646 80.5658 132.004C79.5923 131.082 79.1091 129.998 79.1091 128.759V123.412C79.1091 121.727 79.8545 120.492 81.3527 119.68C82.378 119.097 83.7344 118.804 85.4224 118.804H90.3378C91.7186 118.804 92.8611 119.083 93.7654 119.632C95.0219 120.347 95.6468 121.41 95.6468 122.832V126.332ZM78.3081 120.423C78.3081 121.206 77.9802 121.603 77.3278 121.603H73.1582V132.152C73.1582 132.946 72.8337 133.346 72.1847 133.346C71.5426 133.346 71.1732 133.315 71.0627 133.243C70.7038 133.081 70.5278 132.715 70.5278 132.152V121.603C70.1758 121.603 69.8892 121.596 69.6683 121.586C69.4508 121.569 69.2921 121.548 69.2022 121.531C68.788 121.358 68.5775 120.937 68.5775 120.274C68.5775 119.605 68.788 119.187 69.2022 119.014C69.2921 118.997 69.4508 118.976 69.6683 118.959C69.8892 118.945 70.1758 118.942 70.5278 118.942V116.07C70.5278 115.286 70.8488 114.889 71.4977 114.889C72.1362 114.889 72.5126 114.927 72.623 115C72.9752 115.152 73.1582 115.507 73.1582 116.07V118.942H77.3278C77.9802 118.942 78.3081 119.435 78.3081 120.423ZM67.3314 129.018C67.3314 131.934 64.784 133.391 59.6925 133.391L59.1471 133.388C58.9228 133.381 58.6604 133.374 58.3601 133.36C58.3532 133.353 58.3187 133.346 58.2564 133.346H58.146H57.9494H57.5835H57.0276C52.7474 133.346 50.6109 131.907 50.6109 129.018V120.012C50.6109 119.215 50.9387 118.818 51.5877 118.818C52.233 118.818 52.6094 118.849 52.7234 118.928C53.0718 119.069 53.2445 119.435 53.2445 120.012V129.018C53.2445 130.119 54.5009 130.668 57.0276 130.668H60.9524C63.4274 130.668 64.6631 130.129 64.6631 129.056V120.012C64.6631 119.435 64.8426 119.069 65.1947 118.928C65.3018 118.849 65.6919 118.818 66.3442 118.818C66.9965 118.818 67.3314 119.215 67.3314 120.012V129.018ZM55.7782 116.439C55.7782 117.237 55.4501 117.634 54.8048 117.634H48.6502V132.152C48.6502 132.946 48.3359 133.346 47.694 133.346C47.0346 133.346 46.6308 133.319 46.4721 133.26C46.0821 133.112 45.8852 132.749 45.8852 132.152V117.634H39.7824C39.1232 117.634 38.7952 117.237 38.7952 116.439C38.7952 115.89 38.847 115.514 38.947 115.314C39.0816 115.038 39.3579 114.889 39.7824 114.889H54.8048C55.4501 114.889 55.7782 115.407 55.7782 116.439ZM152.619 132.152C152.619 132.946 152.291 133.346 151.632 133.346C150.979 133.346 150.603 133.315 150.5 133.243C150.137 133.091 149.961 132.721 149.961 132.152V122.908C149.961 122.256 149.509 121.824 148.611 121.62C148.453 121.582 148.208 121.551 147.88 121.541C147.552 121.524 147.137 121.513 146.641 121.513H142.101C141.639 121.513 141.256 121.524 140.948 121.544C140.631 121.569 140.382 121.593 140.203 121.638C139.354 121.834 138.933 122.269 138.933 122.925V132.152C138.933 132.946 138.601 133.346 137.952 133.346C137.307 133.346 136.927 133.315 136.82 133.243C136.471 133.091 136.295 132.721 136.295 132.152V122.949C136.295 120.198 138.311 118.818 142.336 118.818H146.641C150.624 118.818 152.619 120.184 152.619 122.925V132.152Z" fill="#3D3D3C"/>
<path d="M158.1 116.292C156.719 116.289 155.588 117.418 155.586 118.802C155.584 120.182 156.706 121.307 158.09 121.315C159.469 121.323 160.602 120.195 160.608 118.808C160.614 117.428 159.485 116.296 158.1 116.292ZM155.13 118.799C155.131 117.159 156.46 115.835 158.102 115.836C159.741 115.837 161.065 117.166 161.064 118.808C161.062 120.451 159.732 121.774 158.085 121.771C156.45 121.768 155.129 120.438 155.13 118.799Z" fill="#3D3D3C"/>
<path d="M157.643 118.803C157.878 118.803 158.106 118.804 158.334 118.802C158.376 118.802 158.419 118.793 158.459 118.78C158.665 118.717 158.805 118.509 158.779 118.306C158.749 118.067 158.568 117.896 158.331 117.891C158.11 117.887 157.889 117.89 157.669 117.891C157.66 117.891 157.651 117.895 157.643 117.897V118.803ZM158.75 119.171C158.849 119.313 158.951 119.459 159.052 119.605C159.1 119.673 159.149 119.74 159.194 119.81C159.27 119.925 159.245 120.064 159.137 120.136C159.031 120.207 158.896 120.18 158.817 120.069C158.644 119.824 158.472 119.579 158.305 119.332C158.267 119.276 158.227 119.256 158.16 119.258C157.989 119.264 157.819 119.26 157.64 119.26C157.64 119.386 157.64 119.507 157.64 119.627C157.64 119.734 157.641 119.841 157.64 119.948C157.638 120.076 157.539 120.173 157.413 120.173C157.286 120.173 157.185 120.076 157.185 119.949C157.184 119.186 157.184 118.423 157.185 117.66C157.185 117.531 157.281 117.435 157.41 117.435C157.731 117.434 158.052 117.431 158.373 117.435C158.819 117.441 159.224 117.845 159.237 118.29C159.248 118.659 159.098 118.942 158.784 119.138C158.774 119.144 158.765 119.151 158.755 119.158C158.754 119.159 158.754 119.162 158.75 119.171Z" fill="#3D3D3C"/>
<path d="M49.7333 142.992C49.7333 143.223 49.6901 143.433 49.6056 143.623C49.521 143.815 49.3985 143.981 49.2414 144.122C49.0827 144.264 48.8877 144.374 48.6546 144.452C48.4216 144.529 48.161 144.567 47.8728 144.567C47.5863 144.567 47.3274 144.529 47.0996 144.452C46.87 144.374 46.6767 144.264 46.5162 144.122C46.3557 143.981 46.2332 143.815 46.1486 143.623C46.0641 143.433 46.0209 143.223 46.0209 142.992V139.434H46.6371V142.928C46.6371 143.29 46.7406 143.568 46.9476 143.761C47.1548 143.955 47.4603 144.051 47.8659 144.051C48.2715 144.046 48.5822 143.944 48.7961 143.744C49.0102 143.544 49.1171 143.271 49.1171 142.928V139.434H49.7333V142.992Z" fill="#878787"/>
<path d="M52.2635 140.75V141.302H52.2705C52.3825 141.103 52.5431 140.948 52.7467 140.834C52.9522 140.722 53.1851 140.665 53.4441 140.665C53.8583 140.665 54.1845 140.788 54.4227 141.033C54.6607 141.278 54.7799 141.607 54.7799 142.023V144.483H54.1793V142.249C54.1793 142.079 54.1655 141.925 54.1361 141.785C54.1085 141.647 54.0619 141.53 53.9946 141.437C53.929 141.342 53.8392 141.269 53.727 141.217C53.6131 141.166 53.4717 141.14 53.3025 141.14C53.1748 141.14 53.0505 141.162 52.9279 141.211C52.8054 141.257 52.6967 141.33 52.6018 141.425C52.5085 141.521 52.4309 141.649 52.3722 141.808C52.3135 141.965 52.2843 142.153 52.2843 142.369V144.483H51.6835V140.75H52.2635Z" fill="#878787"/>
<path d="M62.1668 142.617C62.1668 142.414 62.1444 142.224 62.0995 142.044C62.0546 141.865 61.9891 141.708 61.9027 141.573C61.8147 141.44 61.7042 141.333 61.5697 141.255C61.435 141.178 61.2814 141.14 61.1071 141.14C60.9276 141.14 60.7688 141.176 60.629 141.252C60.4909 141.328 60.3735 141.433 60.2769 141.566C60.1803 141.701 60.106 141.858 60.0577 142.037C60.0076 142.217 59.9835 142.41 59.9835 142.617C59.9835 142.824 60.0076 143.018 60.0577 143.197C60.106 143.375 60.1803 143.532 60.2769 143.667C60.3735 143.801 60.4909 143.906 60.629 143.981C60.7688 144.057 60.9276 144.095 61.1071 144.095C61.2814 144.095 61.435 144.055 61.5697 143.977C61.7042 143.9 61.8147 143.794 61.9027 143.66C61.9891 143.525 62.0546 143.368 62.0995 143.189C62.1444 143.011 62.1668 142.819 62.1668 142.617ZM60.0181 145.862H59.4175V140.75H59.9973V141.316H60.0043C60.1544 141.09 60.3356 140.924 60.5444 140.821C60.755 140.717 60.9724 140.665 61.1985 140.665C61.4437 140.665 61.6646 140.717 61.8596 140.817C62.0546 140.919 62.2203 141.057 62.355 141.235C62.4896 141.411 62.5914 141.618 62.6622 141.853C62.7328 142.089 62.7674 142.343 62.7674 142.617C62.7674 142.89 62.7312 143.145 62.6587 143.384C62.5862 143.622 62.4826 143.827 62.348 144.001C62.2134 144.177 62.046 144.314 61.8458 144.416C61.6455 144.517 61.4229 144.567 61.1779 144.567C60.9518 144.567 60.7412 144.523 60.5479 144.433C60.3546 144.343 60.1837 144.188 60.0319 143.967H60.0181V145.862Z" fill="#878787"/>
<path d="M66.5644 142.588C66.3521 142.588 66.1485 142.6 65.9535 142.624C65.7567 142.647 65.5858 142.688 65.4374 142.743C65.2889 142.8 65.1664 142.885 65.0732 142.995C64.9783 143.106 64.9317 143.244 64.9317 143.408C64.9265 143.606 64.9817 143.77 65.0974 143.9C65.213 144.029 65.3857 144.095 65.6169 144.095C65.7999 144.095 65.9638 144.062 66.1053 143.998C66.2469 143.936 66.3625 143.848 66.454 143.737C66.5471 143.627 66.6161 143.501 66.6628 143.359C66.7094 143.218 66.7336 143.066 66.7336 142.907V142.588H66.5644ZM66.7336 142.065C66.7439 141.447 66.4419 141.14 65.8292 141.14C65.6773 141.14 65.5203 141.159 65.3546 141.195C65.1905 141.233 65.0301 141.288 64.8747 141.359L64.7402 140.884C64.8868 140.824 65.0612 140.772 65.2665 140.729C65.4719 140.686 65.6686 140.665 65.8568 140.665C66.3089 140.66 66.668 140.769 66.9321 140.991C67.1961 141.212 67.3307 141.549 67.3342 142.001V143.634C67.3342 143.758 67.3411 143.898 67.3532 144.055C67.3635 144.214 67.3825 144.355 67.4049 144.483H66.8751C66.8319 144.328 66.8043 144.141 66.7905 143.924H66.7767C66.6731 144.108 66.5247 144.26 66.3314 144.381C66.1382 144.5 65.8879 144.562 65.5823 144.568C65.4254 144.568 65.2751 144.547 65.1285 144.504C64.9835 144.462 64.8523 144.395 64.7367 144.303C64.621 144.21 64.5279 144.095 64.4571 143.953C64.3863 143.812 64.3519 143.642 64.3519 143.444C64.3552 143.175 64.4191 142.957 64.5417 142.79C64.6642 142.622 64.8385 142.491 65.0612 142.398C65.2855 142.303 65.5409 142.239 65.8257 142.206C66.1105 142.174 66.4125 142.156 66.7336 142.156V142.065Z" fill="#878787"/>
<path d="M71.3797 141.33C71.2278 141.259 71.076 141.211 70.9241 141.181C70.7705 141.154 70.6134 141.14 70.4529 141.14C70.3683 141.14 70.2837 141.147 70.2026 141.164C70.1198 141.181 70.0439 141.207 69.9765 141.245C69.9075 141.283 69.8522 141.337 69.8091 141.404C69.7677 141.473 69.747 141.556 69.747 141.656C69.747 141.735 69.7591 141.806 69.7849 141.866C69.8108 141.929 69.8557 141.985 69.9195 142.041C69.9835 142.094 70.0645 142.146 70.1629 142.196C70.263 142.246 70.3873 142.298 70.5374 142.355C70.7169 142.42 70.8775 142.489 71.019 142.56C71.1605 142.631 71.2831 142.71 71.3867 142.797C71.4902 142.885 71.5695 142.986 71.6231 143.104C71.6766 143.223 71.7042 143.359 71.7042 143.515C71.7042 143.713 71.6645 143.879 71.5833 144.017C71.504 144.153 71.3987 144.262 71.2693 144.341C71.1398 144.423 70.9931 144.479 70.8308 144.514C70.6686 144.55 70.5047 144.567 70.3407 144.567C70.1561 144.567 69.9506 144.547 69.7245 144.504C69.4985 144.462 69.2862 144.393 69.0894 144.3L69.2448 143.825C69.4415 143.915 69.6383 143.982 69.8316 144.027C70.0249 144.072 70.1991 144.095 70.3545 144.095C70.5703 144.098 70.7515 144.06 70.8947 143.977C71.0379 143.894 71.1122 143.753 71.1174 143.549C71.1122 143.375 71.0345 143.233 70.8843 143.123C70.7342 143.011 70.5098 142.904 70.2129 142.8C69.8781 142.683 69.621 142.539 69.4415 142.369C69.2637 142.2 69.1705 141.982 69.1671 141.718C69.1705 141.53 69.2102 141.371 69.2827 141.242C69.357 141.112 69.4536 141.005 69.5761 140.921C69.6986 140.834 69.8351 140.772 69.9869 140.729C70.1371 140.686 70.2924 140.665 70.4529 140.665C70.6514 140.665 70.8446 140.682 71.0328 140.715C71.2209 140.748 71.3832 140.8 71.5212 140.871L71.3797 141.33Z" fill="#878787"/>
<path d="M76.157 142.61C76.157 142.393 76.1346 142.194 76.0897 142.015C76.0448 141.837 75.9775 141.682 75.8861 141.552C75.7928 141.423 75.6755 141.321 75.5323 141.249C75.3872 141.176 75.2198 141.14 75.0265 141.14C74.8333 141.14 74.6641 141.176 74.5208 141.249C74.3777 141.321 74.2585 141.423 74.1671 141.552C74.0756 141.682 74.0065 141.837 73.9616 142.015C73.9167 142.194 73.8961 142.393 73.8961 142.61C73.8961 142.826 73.9185 143.026 73.9651 143.207C74.0135 143.389 74.0825 143.546 74.1739 143.677C74.2671 143.81 74.3828 143.912 74.5243 143.984C74.6658 144.058 74.8333 144.095 75.0265 144.095C75.2198 144.095 75.3872 144.058 75.5323 143.984C75.6755 143.912 75.7928 143.81 75.8861 143.677C75.9775 143.546 76.0448 143.389 76.0897 143.207C76.1346 143.026 76.157 142.826 76.157 142.61ZM76.7576 142.61C76.7576 142.916 76.7179 143.188 76.6386 143.43C76.5575 143.67 76.4418 143.875 76.2917 144.045C76.1415 144.214 75.9602 144.343 75.7479 144.433C75.5357 144.523 75.2958 144.567 75.0265 144.567C74.7573 144.567 74.5175 144.523 74.3052 144.433C74.0928 144.343 73.9116 144.214 73.7615 144.045C73.6095 143.875 73.494 143.67 73.4145 143.43C73.3351 143.188 73.2937 142.916 73.2937 142.61C73.2937 142.308 73.3351 142.036 73.418 141.792C73.5008 141.551 73.6147 141.347 73.7615 141.181C73.9064 141.017 74.0876 140.89 74.3052 140.8C74.5226 140.71 74.7625 140.665 75.0265 140.665C75.2958 140.665 75.5357 140.71 75.7514 140.8C75.9655 140.89 76.1467 141.017 76.2951 141.181C76.4436 141.347 76.5575 141.551 76.6386 141.792C76.7179 142.036 76.7576 142.308 76.7576 142.61Z" fill="#878787"/>
<path d="M83.2264 142.588C83.0141 142.588 82.8105 142.6 82.6155 142.624C82.4187 142.647 82.2478 142.688 82.0993 142.743C81.9509 142.8 81.8284 142.885 81.7351 142.995C81.6402 143.106 81.5937 143.244 81.5937 143.408C81.5885 143.606 81.6437 143.77 81.7594 143.9C81.8749 144.029 82.0476 144.095 82.2789 144.095C82.4617 144.095 82.6258 144.062 82.7673 143.998C82.9089 143.936 83.0244 143.848 83.116 143.737C83.2091 143.627 83.2781 143.501 83.3248 143.359C83.3713 143.218 83.3955 143.066 83.3955 142.907V142.588H83.2264ZM83.3955 142.065C83.4059 141.447 83.1039 141.14 82.4911 141.14C82.3392 141.14 82.1823 141.159 82.0165 141.195C81.8525 141.233 81.6921 141.288 81.5367 141.359L81.4021 140.884C81.5488 140.824 81.7231 140.772 81.9285 140.729C82.1339 140.686 82.3306 140.665 82.5187 140.665C82.9709 140.66 83.3299 140.769 83.5939 140.991C83.8581 141.212 83.9927 141.549 83.9962 142.001V143.634C83.9962 143.758 84.003 143.898 84.0151 144.055C84.0255 144.214 84.0444 144.355 84.0669 144.483H83.5371C83.4939 144.328 83.4663 144.141 83.4525 143.924H83.4387C83.3351 144.108 83.1867 144.26 82.9933 144.381C82.8001 144.5 82.5498 144.562 82.2443 144.568C82.0873 144.568 81.9371 144.547 81.7905 144.504C81.6455 144.462 81.5142 144.395 81.3987 144.303C81.283 144.21 81.1899 144.095 81.1191 143.953C81.0483 143.812 81.0138 143.642 81.0138 143.444C81.0172 143.175 81.081 142.957 81.2037 142.79C81.3262 142.622 81.5004 142.491 81.7231 142.398C81.9474 142.303 82.2029 142.239 82.4877 142.206C82.7724 142.174 83.0745 142.156 83.3955 142.156V142.065Z" fill="#878787"/>
<path d="M89.2704 144.483H88.6698V139.286H89.2704V144.483Z" fill="#878787"/>
<path d="M93.2574 142.588C93.0451 142.588 92.8414 142.6 92.6464 142.624C92.4496 142.647 92.2788 142.688 92.1303 142.743C91.9819 142.8 91.8594 142.885 91.7661 142.995C91.6712 143.106 91.6246 143.244 91.6246 143.408C91.6195 143.606 91.6747 143.77 91.7904 143.9C91.9059 144.029 92.0786 144.095 92.3098 144.095C92.4928 144.095 92.6568 144.062 92.7982 143.998C92.9398 143.936 93.0554 143.848 93.147 143.737C93.2401 143.627 93.3091 143.501 93.3558 143.359C93.4023 143.218 93.4264 143.066 93.4264 142.907V142.588H93.2574ZM93.4264 142.065C93.4369 141.447 93.1348 141.14 92.5221 141.14C92.3702 141.14 92.2132 141.159 92.0475 141.195C91.8835 141.233 91.723 141.288 91.5676 141.359L91.4331 140.884C91.5798 140.824 91.7541 140.772 91.9594 140.729C92.1649 140.686 92.3616 140.665 92.5497 140.665C93.0019 140.66 93.3609 140.769 93.6249 140.991C93.889 141.212 94.0237 141.549 94.0272 142.001V143.634C94.0272 143.758 94.034 143.898 94.0461 144.055C94.0564 144.214 94.0754 144.355 94.0978 144.483H93.568C93.5248 144.328 93.4972 144.141 93.4834 143.924H93.4696C93.3661 144.108 93.2176 144.26 93.0243 144.381C92.8311 144.5 92.5808 144.562 92.2753 144.568C92.1183 144.568 91.9681 144.547 91.8214 144.504C91.6765 144.462 91.5452 144.395 91.4296 144.303C91.314 144.21 91.2208 144.095 91.15 143.953C91.0792 143.812 91.0448 143.642 91.0448 143.444C91.0482 143.175 91.112 142.957 91.2346 142.79C91.3572 142.622 91.5314 142.491 91.7541 142.398C91.9785 142.303 92.2339 142.239 92.5186 142.206C92.8034 142.174 93.1054 142.156 93.4264 142.156V142.065Z" fill="#878787"/>
<path d="M101.45 142.617C101.45 142.414 101.428 142.224 101.383 142.044C101.338 141.865 101.273 141.708 101.186 141.573C101.098 141.44 100.988 141.333 100.853 141.255C100.718 141.178 100.565 141.14 100.391 141.14C100.211 141.14 100.052 141.176 99.9124 141.252C99.7743 141.328 99.6571 141.433 99.5604 141.566C99.4638 141.701 99.3895 141.858 99.3411 142.037C99.2911 142.217 99.267 142.41 99.267 142.617C99.267 142.824 99.2911 143.018 99.3411 143.197C99.3895 143.375 99.4638 143.532 99.5604 143.667C99.6571 143.801 99.7743 143.906 99.9124 143.981C100.052 144.057 100.211 144.095 100.391 144.095C100.565 144.095 100.718 144.055 100.853 143.977C100.988 143.9 101.098 143.794 101.186 143.66C101.273 143.525 101.338 143.368 101.383 143.189C101.428 143.011 101.45 142.819 101.45 142.617ZM99.3015 145.862H98.7009V140.75H99.2808V141.316H99.2877C99.4378 141.09 99.619 140.924 99.8278 140.821C100.038 140.717 100.256 140.665 100.482 140.665C100.727 140.665 100.948 140.717 101.143 140.817C101.338 140.919 101.504 141.057 101.638 141.235C101.773 141.411 101.875 141.618 101.946 141.853C102.016 142.089 102.051 142.343 102.051 142.617C102.051 142.89 102.015 143.145 101.942 143.384C101.87 143.622 101.766 143.827 101.631 144.001C101.497 144.177 101.329 144.314 101.129 144.416C100.929 144.517 100.706 144.567 100.461 144.567C100.235 144.567 100.025 144.523 99.8313 144.433C99.638 144.343 99.4671 144.188 99.3153 143.967H99.3015V145.862Z" fill="#878787"/>
<path d="M105.67 141.161C105.585 141.147 105.482 141.14 105.359 141.14C105.232 141.14 105.116 141.159 105.009 141.198C104.904 141.24 104.809 141.305 104.728 141.397C104.645 141.488 104.581 141.608 104.536 141.754C104.491 141.901 104.469 142.082 104.469 142.298V144.483H103.868V140.75H104.448V141.252H104.455C104.545 141.053 104.669 140.907 104.83 140.81C104.99 140.714 105.19 140.665 105.43 140.665C105.463 140.665 105.508 140.667 105.565 140.669C105.622 140.672 105.667 140.675 105.699 140.679L105.67 141.161Z" fill="#878787"/>
<path d="M109.721 142.61C109.721 142.393 109.698 142.194 109.653 142.015C109.609 141.837 109.541 141.682 109.45 141.552C109.357 141.423 109.239 141.321 109.096 141.249C108.951 141.176 108.784 141.14 108.59 141.14C108.397 141.14 108.228 141.176 108.085 141.249C107.941 141.321 107.822 141.423 107.731 141.552C107.639 141.682 107.57 141.837 107.525 142.015C107.48 142.194 107.46 142.393 107.46 142.61C107.46 142.826 107.482 143.026 107.529 143.207C107.577 143.389 107.646 143.546 107.738 143.677C107.831 143.81 107.947 143.912 108.088 143.984C108.23 144.058 108.397 144.095 108.59 144.095C108.784 144.095 108.951 144.058 109.096 143.984C109.239 143.912 109.357 143.81 109.45 143.677C109.541 143.546 109.609 143.389 109.653 143.207C109.698 143.026 109.721 142.826 109.721 142.61ZM110.321 142.61C110.321 142.916 110.282 143.188 110.202 143.43C110.121 143.67 110.006 143.875 109.855 144.045C109.705 144.214 109.524 144.343 109.312 144.433C109.099 144.523 108.86 144.567 108.59 144.567C108.321 144.567 108.081 144.523 107.869 144.433C107.657 144.343 107.475 144.214 107.325 144.045C107.173 143.875 107.058 143.67 106.978 143.43C106.899 143.188 106.857 142.916 106.857 142.61C106.857 142.308 106.899 142.036 106.982 141.792C107.065 141.551 107.178 141.347 107.325 141.181C107.47 141.017 107.651 140.89 107.869 140.8C108.086 140.71 108.326 140.665 108.59 140.665C108.86 140.665 109.099 140.71 109.315 140.8C109.529 140.89 109.71 141.017 109.859 141.181C110.007 141.347 110.121 141.551 110.202 141.792C110.282 142.036 110.321 142.308 110.321 142.61Z" fill="#878787"/>
<path d="M112.551 142.61C112.551 142.812 112.572 143.004 112.617 143.182C112.662 143.361 112.729 143.518 112.815 143.653C112.903 143.787 113.014 143.894 113.148 143.974C113.281 144.055 113.438 144.095 113.618 144.095C113.797 144.095 113.956 144.055 114.096 143.977C114.234 143.9 114.351 143.794 114.448 143.66C114.545 143.525 114.619 143.368 114.667 143.188C114.717 143.011 114.742 142.817 114.742 142.61C114.742 142.401 114.717 142.208 114.667 142.03C114.619 141.851 114.545 141.696 114.448 141.563C114.351 141.432 114.234 141.328 114.096 141.252C113.956 141.176 113.797 141.14 113.618 141.14C113.444 141.14 113.288 141.178 113.152 141.255C113.014 141.333 112.903 141.44 112.815 141.573C112.729 141.708 112.662 141.863 112.617 142.041C112.572 142.217 112.551 142.407 112.551 142.61ZM114.707 139.286H115.308V144.483H114.728V143.917H114.714C114.567 144.134 114.391 144.297 114.184 144.405C113.977 144.514 113.758 144.567 113.526 144.567C113.281 144.567 113.06 144.517 112.865 144.416C112.669 144.314 112.505 144.177 112.37 144.001C112.235 143.827 112.132 143.62 112.059 143.38C111.985 143.14 111.949 142.883 111.949 142.61C111.949 142.336 111.987 142.08 112.063 141.842C112.139 141.604 112.244 141.4 112.38 141.228C112.517 141.055 112.684 140.919 112.883 140.817C113.081 140.717 113.302 140.665 113.547 140.665C113.778 140.665 113.989 140.712 114.181 140.803C114.37 140.895 114.541 141.047 114.693 141.259H114.707V139.286Z" fill="#878787"/>
<path d="M119.783 144.483V143.932H119.774C119.662 144.129 119.503 144.284 119.298 144.398C119.092 144.51 118.861 144.567 118.602 144.567C118.178 144.562 117.85 144.44 117.619 144.196C117.387 143.955 117.27 143.625 117.265 143.211V140.75H117.867V142.985C117.867 143.159 117.881 143.314 117.908 143.451C117.938 143.587 117.984 143.703 118.05 143.798C118.116 143.891 118.205 143.965 118.319 144.017C118.431 144.069 118.573 144.095 118.742 144.095C118.87 144.095 118.996 144.07 119.118 144.024C119.241 143.976 119.348 143.905 119.443 143.808C119.538 143.711 119.614 143.584 119.672 143.427C119.731 143.268 119.76 143.081 119.76 142.864V140.75H120.361V144.483H119.783Z" fill="#878787"/>
<path d="M124.814 141.295C124.588 141.192 124.343 141.14 124.079 141.14C123.872 141.14 123.687 141.178 123.525 141.255C123.361 141.333 123.224 141.44 123.114 141.573C123.003 141.708 122.919 141.865 122.864 142.044C122.807 142.224 122.779 142.417 122.779 142.624C122.779 142.826 122.807 143.018 122.864 143.197C122.919 143.375 123.002 143.53 123.11 143.663C123.219 143.794 123.354 143.899 123.518 143.977C123.68 144.055 123.866 144.095 124.079 144.095C124.215 144.095 124.341 144.084 124.453 144.062C124.567 144.041 124.691 144 124.828 143.939L124.928 144.412C124.776 144.469 124.633 144.509 124.496 144.533C124.36 144.555 124.218 144.567 124.072 144.567C123.761 144.567 123.487 144.517 123.252 144.419C123.015 144.321 122.819 144.184 122.662 144.013C122.503 143.841 122.384 143.635 122.301 143.397C122.218 143.159 122.177 142.902 122.177 142.624C122.177 142.341 122.222 142.079 122.308 141.839C122.396 141.599 122.52 141.392 122.682 141.221C122.845 141.048 123.043 140.914 123.276 140.814C123.509 140.715 123.773 140.665 124.065 140.665C124.405 140.665 124.698 140.717 124.949 140.82L124.814 141.295Z" fill="#878787"/>
<path d="M126.215 140.75H126.88V139.811H127.48V140.75H128.343V141.224H127.48V143.458C127.48 143.585 127.486 143.687 127.494 143.765C127.505 143.843 127.525 143.905 127.558 143.95C127.591 143.994 127.639 144.024 127.703 144.038C127.767 144.051 127.85 144.058 127.953 144.058C128.034 144.058 128.104 144.057 128.162 144.051C128.221 144.046 128.285 144.039 128.35 144.031V144.483C128.285 144.491 128.199 144.504 128.091 144.514C127.986 144.526 127.883 144.533 127.784 144.533C127.591 144.533 127.436 144.511 127.318 144.466C127.201 144.421 127.108 144.352 127.042 144.26C126.977 144.169 126.933 144.058 126.911 143.932C126.89 143.805 126.88 143.658 126.88 143.494V141.224H126.215V140.75Z" fill="#878787"/>
<path d="M130.604 144.483H130.004V140.75H130.604V144.483ZM130.625 139.966H129.983V139.343H130.625V139.966Z" fill="#878787"/>
<path d="M133.827 143.967H133.842L134.945 140.75H135.58L134.174 144.483H133.475L132.075 140.75H132.732L133.827 143.967Z" fill="#878787"/>
<path d="M137.653 144.483H137.052V140.75H137.653V144.483ZM137.674 139.966H137.032V139.343H137.674V139.966Z" fill="#878787"/>
<path d="M140.071 142.61C140.071 142.812 140.092 143.004 140.137 143.182C140.181 143.361 140.249 143.518 140.335 143.653C140.423 143.787 140.533 143.894 140.668 143.974C140.801 144.055 140.958 144.095 141.137 144.095C141.317 144.095 141.476 144.055 141.616 143.977C141.754 143.9 141.871 143.794 141.968 143.66C142.064 143.525 142.139 143.368 142.187 143.188C142.237 143.011 142.261 142.817 142.261 142.61C142.261 142.401 142.237 142.208 142.187 142.03C142.139 141.851 142.064 141.696 141.968 141.563C141.871 141.432 141.754 141.328 141.616 141.252C141.476 141.176 141.317 141.14 141.137 141.14C140.963 141.14 140.808 141.178 140.672 141.255C140.533 141.333 140.423 141.44 140.335 141.573C140.249 141.708 140.181 141.863 140.137 142.041C140.092 142.217 140.071 142.407 140.071 142.61ZM142.227 139.286H142.827V144.483H142.247V143.917H142.233C142.087 144.134 141.911 144.297 141.704 144.405C141.497 144.514 141.277 144.567 141.046 144.567C140.801 144.567 140.58 144.517 140.385 144.416C140.188 144.314 140.024 144.177 139.89 144.001C139.755 143.827 139.652 143.62 139.579 143.38C139.505 143.14 139.469 142.883 139.469 142.61C139.469 142.336 139.507 142.08 139.583 141.842C139.658 141.604 139.764 141.4 139.9 141.228C140.036 141.055 140.204 140.919 140.402 140.817C140.601 140.717 140.822 140.665 141.067 140.665C141.298 140.665 141.509 140.712 141.7 140.803C141.89 140.895 142.061 141.047 142.213 141.259H142.227V139.286Z" fill="#878787"/>
<path d="M146.807 142.588C146.595 142.588 146.391 142.6 146.196 142.624C146 142.647 145.829 142.688 145.68 142.743C145.532 142.8 145.409 142.885 145.316 142.995C145.221 143.106 145.175 143.244 145.175 143.408C145.169 143.606 145.225 143.77 145.34 143.9C145.456 144.029 145.628 144.095 145.86 144.095C146.043 144.095 146.207 144.062 146.348 143.998C146.49 143.936 146.605 143.848 146.697 143.737C146.79 143.627 146.859 143.501 146.906 143.359C146.952 143.218 146.976 143.066 146.976 142.907V142.588H146.807ZM146.976 142.065C146.987 141.447 146.685 141.14 146.072 141.14C145.92 141.14 145.763 141.159 145.597 141.195C145.433 141.233 145.273 141.288 145.118 141.359L144.983 140.884C145.13 140.824 145.304 140.772 145.509 140.729C145.715 140.686 145.911 140.665 146.1 140.665C146.552 140.66 146.911 140.769 147.175 140.991C147.439 141.212 147.574 141.549 147.577 142.001V143.634C147.577 143.758 147.584 143.898 147.596 144.055C147.606 144.214 147.625 144.355 147.648 144.483H147.118C147.075 144.328 147.047 144.141 147.033 143.924H147.02C146.916 144.108 146.768 144.26 146.574 144.381C146.381 144.5 146.131 144.562 145.825 144.568C145.668 144.568 145.518 144.547 145.371 144.504C145.226 144.462 145.095 144.395 144.98 144.303C144.864 144.21 144.771 144.095 144.7 143.953C144.629 143.812 144.595 143.642 144.595 143.444C144.598 143.175 144.662 142.957 144.785 142.79C144.907 142.622 145.081 142.491 145.304 142.398C145.528 142.303 145.784 142.239 146.069 142.206C146.353 142.174 146.655 142.156 146.976 142.156V142.065Z" fill="#878787"/>
<path d="M149.99 142.61C149.99 142.812 150.01 143.004 150.055 143.182C150.1 143.361 150.167 143.518 150.254 143.653C150.342 143.787 150.452 143.894 150.587 143.974C150.72 144.055 150.877 144.095 151.056 144.095C151.236 144.095 151.395 144.055 151.534 143.977C151.672 143.9 151.79 143.794 151.887 143.66C151.983 143.525 152.057 143.368 152.106 143.188C152.156 143.011 152.18 142.817 152.18 142.61C152.18 142.401 152.156 142.208 152.106 142.03C152.057 141.851 151.983 141.696 151.887 141.563C151.79 141.432 151.672 141.328 151.534 141.252C151.395 141.176 151.236 141.14 151.056 141.14C150.882 141.14 150.727 141.178 150.59 141.255C150.452 141.333 150.342 141.44 150.254 141.573C150.167 141.708 150.1 141.863 150.055 142.041C150.01 142.217 149.99 142.407 149.99 142.61ZM152.145 139.286H152.746V144.483H152.166V143.917H152.152C152.006 144.134 151.83 144.297 151.622 144.405C151.415 144.514 151.196 144.567 150.965 144.567C150.72 144.567 150.499 144.517 150.304 144.416C150.107 144.314 149.943 144.177 149.809 144.001C149.674 143.827 149.57 143.62 149.498 143.38C149.424 143.14 149.387 142.883 149.387 142.61C149.387 142.336 149.425 142.08 149.501 141.842C149.577 141.604 149.683 141.4 149.819 141.228C149.955 141.055 150.123 140.919 150.321 140.817C150.52 140.717 150.74 140.665 150.986 140.665C151.217 140.665 151.427 140.712 151.619 140.803C151.809 140.895 151.98 141.047 152.132 141.259H152.145V139.286Z" fill="#878787"/>
</g>
</svg>
