<svg width="166" height="124" viewBox="0 0 166 124" fill="none" xmlns="http://www.w3.org/2000/svg">
<g clip-path="url(#clip0_7_2)">
<path d="M109.739 2.69984C108.303 0.11494 105.119 -0.762368 102.635 0.720298L82.9076 12.5367L63.1804 0.720298C60.6886 -0.762368 57.5129 0.11494 56.0847 2.69984C54.6407 5.2776 55.4868 8.58477 57.9788 10.0678L72.5045 18.7821L66.5965 22.3147C64.1042 23.7977 63.2579 27.1125 64.6945 29.6903C66.1306 32.2755 69.3137 33.1602 71.7981 31.6698L77.7061 28.1296V63.8422C77.7061 66.8234 80.0351 69.2299 82.9076 69.2299C85.7724 69.2299 88.1094 66.8234 88.1094 63.8422V28.1296L94.0097 31.6698C96.5017 33.1602 99.6769 32.2755 101.113 29.6903C102.558 27.1125 101.703 23.7977 99.2189 22.3147L93.311 18.7821L107.837 10.0678C110.329 8.58477 111.175 5.2776 109.739 2.69984Z" fill="#D31B21"/>
<path d="M125.858 99.7782L125.848 99.0552L125.825 98.0524L125.802 97.0541L125.792 96.331H113.161C112.419 96.331 111.663 96.499 110.87 96.8255C109.853 97.2499 109.345 97.8051 109.345 98.486V100.959C109.345 101.686 109.867 102.232 110.926 102.619C111.598 102.918 112.381 103.071 113.268 103.071H122.103C123.423 103.071 124.337 102.913 124.831 102.605C125.517 102.171 125.858 101.234 125.858 99.7782ZM129.347 100.8C129.347 104.732 126.926 106.691 122.065 106.691H113.366C111.5 106.691 109.886 106.276 108.528 105.446C106.695 104.378 105.786 102.904 105.786 101.001V98.5096C105.786 96.457 106.658 94.9223 108.393 93.9007C109.685 93.1079 111.304 92.7067 113.249 92.7067H125.825C125.639 91.3258 124.025 90.6402 121.002 90.6402C120.88 90.6402 120.736 90.6402 120.554 90.6542C120.386 90.6589 120.185 90.6634 119.962 90.6821C119.948 90.7009 119.891 90.7009 119.794 90.7009H119.64H119.369H118.949C118.072 90.7009 117.634 90.029 117.634 88.6715C117.634 87.5941 118.072 87.0577 118.949 87.0577C121.79 87.0577 123.964 87.3001 125.471 87.7714C128.055 88.6623 129.347 90.4396 129.347 93.0985V100.8ZM103.878 105.18C103.878 106.187 103.379 106.691 102.376 106.691C101.429 106.691 100.855 106.635 100.659 106.509L88.4983 99.1204V105.077C88.4983 105.838 88.2604 106.332 87.794 106.551C87.6448 106.649 87.1455 106.691 86.2872 106.691C85.4102 106.691 84.9717 106.15 84.9717 105.077V83.3446C84.9717 82.2857 85.4102 81.7492 86.2872 81.7492C87.1128 81.7492 87.6119 81.7958 87.8078 81.8751C88.2696 82.0619 88.4983 82.5609 88.4983 83.3446V94.675L100.505 87.3843C100.808 87.2769 101.35 87.2257 102.124 87.2257C103.117 87.2257 103.626 87.7248 103.626 88.7184C103.626 89.3713 103.318 89.8845 102.707 90.2531L91.8196 96.8488L102.963 103.622C103.57 103.99 103.878 104.513 103.878 105.18ZM82.4481 105.077C82.4481 106.15 82.0098 106.691 81.1281 106.691C80.2651 106.691 79.7659 106.649 79.6214 106.551C79.127 106.332 78.8893 105.838 78.8893 105.077V83.3446C78.8893 82.2857 79.3321 81.7492 80.2091 81.7492C81.0207 81.7492 81.534 81.7958 81.7346 81.8751C82.2149 82.0619 82.4481 82.5609 82.4481 83.3446V105.077ZM73.3569 95.2488V92.8372C73.3569 91.3539 70.9497 90.6261 66.1219 90.6261C63.2904 90.6261 61.336 90.7427 60.277 90.9853C58.7843 91.3258 58.0379 91.9975 58.0379 92.9958V95.2488H73.3569ZM76.8273 97.2126C76.8273 98.4067 76.5053 98.9946 75.8383 98.9946H58.1499V99.1392C58.1499 101.001 59.0548 102.19 60.8555 102.722C61.2426 102.833 61.8118 102.913 62.5626 102.978C63.3137 103.039 64.2608 103.071 65.4222 103.071C66.2943 103.071 66.7328 103.743 66.7328 105.077C66.7328 106.15 66.2943 106.691 65.4222 106.691C64.2231 106.691 63.2482 106.687 62.4974 106.663C61.7325 106.649 61.1633 106.603 60.7715 106.551C58.8122 106.304 57.3754 105.744 56.4474 104.877C55.1319 103.631 54.4789 102.167 54.4789 100.492V93.2665C54.4789 90.9898 55.4862 89.32 57.5108 88.2238C58.8964 87.4355 60.7293 87.0389 63.0105 87.0389H69.653C71.5189 87.0389 73.0629 87.4169 74.2849 88.1585C75.9829 89.1241 76.8273 90.5609 76.8273 92.4826V97.2126ZM53.3964 89.2268C53.3964 90.2856 52.9534 90.822 52.0717 90.822H46.437V105.077C46.437 106.15 45.9985 106.691 45.1215 106.691C44.2538 106.691 43.7546 106.649 43.6053 106.551C43.1202 106.332 42.8823 105.838 42.8823 105.077V90.822C42.4067 90.822 42.0195 90.8126 41.7209 90.7988C41.4269 90.7755 41.2125 90.7474 41.0911 90.7241C40.5313 90.491 40.2469 89.9218 40.2469 89.0262C40.2469 88.1213 40.5313 87.5567 41.0911 87.3236C41.2125 87.3001 41.4269 87.2722 41.7209 87.2489C42.0195 87.2302 42.4067 87.2257 42.8823 87.2257V83.3446C42.8823 82.2857 43.3161 81.7492 44.1931 81.7492C45.056 81.7492 45.5645 81.8006 45.7137 81.8984C46.1897 82.1037 46.437 82.5842 46.437 83.3446V87.2257H52.0717C52.9534 87.2257 53.3964 87.8927 53.3964 89.2268ZM38.5629 100.842C38.5629 104.783 35.1204 106.752 28.2399 106.752L27.5029 106.747C27.1998 106.738 26.8451 106.729 26.4394 106.71C26.43 106.701 26.3834 106.691 26.2993 106.691H26.1501H25.8843H25.3899H24.6387C18.8545 106.691 15.9673 104.746 15.9673 100.842V88.6715C15.9673 87.5941 16.4104 87.0577 17.2873 87.0577C18.1595 87.0577 18.668 87.0995 18.8221 87.207C19.293 87.3981 19.5263 87.8927 19.5263 88.6715V100.842C19.5263 102.33 21.2242 103.071 24.6387 103.071H29.9425C33.2871 103.071 34.9571 102.344 34.9571 100.893V88.6715C34.9571 87.8927 35.1997 87.3981 35.6755 87.207C35.8201 87.0995 36.3473 87.0577 37.2288 87.0577C38.1103 87.0577 38.5629 87.5941 38.5629 88.6715V100.842ZM22.9503 83.8438C22.9503 84.9212 22.5069 85.4576 21.6348 85.4576H13.3177V105.077C13.3177 106.15 12.893 106.691 12.0256 106.691C11.1345 106.691 10.5888 106.654 10.3743 106.575C9.84725 106.374 9.58114 105.884 9.58114 105.077V85.4576H1.33412C0.443193 85.4576 0 84.9212 0 83.8438C0 83.102 0.0700572 82.5935 0.20514 82.323C0.387088 81.9498 0.760386 81.7492 1.33412 81.7492H21.6348C22.5069 81.7492 22.9503 82.449 22.9503 83.8438ZM153.818 105.077C153.818 106.15 153.375 106.691 152.484 106.691C151.602 106.691 151.094 106.649 150.954 106.551C150.464 106.346 150.226 105.847 150.226 105.077V92.5852C150.226 91.7037 149.615 91.1205 148.402 90.8454C148.187 90.7941 147.856 90.7519 147.413 90.7382C146.97 90.7148 146.41 90.7009 145.739 90.7009H139.604C138.979 90.7009 138.462 90.7148 138.047 90.7427C137.617 90.7755 137.282 90.8081 137.039 90.8689C135.891 91.1347 135.322 91.7223 135.322 92.6087V105.077C135.322 106.15 134.875 106.691 133.998 106.691C133.125 106.691 132.612 106.649 132.468 106.551C131.996 106.346 131.759 105.847 131.759 105.077V92.6413C131.759 88.9235 134.483 87.0577 139.922 87.0577H145.739C151.122 87.0577 153.818 88.9049 153.818 92.6087V105.077Z" fill="#3D3D3C"/>
<path d="M161.225 83.6449C159.358 83.6402 157.829 85.1669 157.827 87.0369C157.825 88.901 159.34 90.4219 161.211 90.4328C163.074 90.4437 164.606 88.9188 164.614 87.0454C164.621 85.1802 163.096 83.6496 161.225 83.6449ZM157.211 87.0324C157.213 84.8164 159.008 83.0269 161.227 83.0287C163.443 83.0305 165.232 84.8255 165.23 87.0452C165.228 89.2654 163.43 91.0536 161.204 91.049C158.995 91.0445 157.209 89.2477 157.211 87.0324Z" fill="#3D3D3C"/>
<path d="M160.607 87.0384C160.925 87.0384 161.233 87.0399 161.541 87.0371C161.597 87.0365 161.656 87.024 161.71 87.0073C161.988 86.9223 162.177 86.6405 162.143 86.3669C162.102 86.0439 161.858 85.8126 161.537 85.8061C161.238 85.8001 160.94 85.8047 160.642 85.8053C160.63 85.8053 160.618 85.8112 160.607 85.8142V87.0384ZM162.103 87.5355C162.237 87.7278 162.374 87.9247 162.512 88.1215C162.576 88.2138 162.642 88.3048 162.703 88.3985C162.806 88.554 162.772 88.7416 162.625 88.8394C162.483 88.9348 162.3 88.8993 162.193 88.7484C161.96 88.4183 161.728 88.0873 161.501 87.7526C161.45 87.6769 161.396 87.6503 161.305 87.653C161.075 87.6603 160.844 87.6555 160.603 87.6555C160.603 87.8261 160.603 87.9889 160.603 88.1515C160.603 88.2962 160.605 88.4407 160.602 88.5853C160.6 88.7582 160.467 88.889 160.296 88.8895C160.125 88.8899 159.988 88.7588 159.988 88.5871C159.986 87.5559 159.987 86.5249 159.988 85.4936C159.988 85.3195 160.118 85.1894 160.293 85.1889C160.726 85.1875 161.16 85.1841 161.593 85.1898C162.196 85.1977 162.744 85.7432 162.761 86.3453C162.776 86.844 162.573 87.2259 162.149 87.4901C162.136 87.4985 162.123 87.5081 162.11 87.5176C162.108 87.5192 162.108 87.5235 162.103 87.5355Z" fill="#3D3D3C"/>
<path d="M14.7814 119.726C14.7814 120.038 14.723 120.323 14.6089 120.579C14.4945 120.838 14.329 121.062 14.1167 121.254C13.9021 121.445 13.6386 121.594 13.3237 121.699C13.0088 121.804 12.6566 121.855 12.2672 121.855C11.88 121.855 11.5302 121.804 11.2222 121.699C10.912 121.594 10.6508 121.445 10.4339 121.254C10.217 121.062 10.0514 120.838 9.93707 120.579C9.82291 120.323 9.76453 120.038 9.76453 119.726V114.919H10.5972V119.639C10.5972 120.129 10.7372 120.505 11.0169 120.766C11.2968 121.027 11.7097 121.158 12.2578 121.158C12.8059 121.151 13.2258 121.013 13.5149 120.743C13.8042 120.472 13.9487 120.104 13.9487 119.639V114.919H14.7814V119.726Z" fill="#878787"/>
<path d="M18.2006 116.696V117.442H18.21C18.3615 117.174 18.5785 116.964 18.8536 116.81C19.1313 116.659 19.446 116.582 19.796 116.582C20.3558 116.582 20.7965 116.747 21.1184 117.079C21.4402 117.41 21.6012 117.855 21.6012 118.417V121.741H20.7896V118.723C20.7896 118.492 20.7709 118.284 20.7312 118.096C20.6939 117.909 20.631 117.75 20.54 117.624C20.4513 117.496 20.33 117.398 20.1784 117.328C20.0245 117.258 19.8333 117.223 19.6046 117.223C19.4321 117.223 19.2641 117.253 19.0985 117.319C18.9329 117.382 18.786 117.48 18.6577 117.608C18.5317 117.739 18.4268 117.911 18.3475 118.126C18.2682 118.338 18.2287 118.592 18.2287 118.884V121.741H17.4169V116.696H18.2006Z" fill="#878787"/>
<path d="M31.5836 119.22C31.5836 118.945 31.5533 118.688 31.4926 118.445C31.432 118.203 31.3434 117.991 31.2267 117.809C31.1078 117.629 30.9585 117.484 30.7767 117.379C30.5947 117.275 30.3872 117.223 30.1515 117.223C29.9089 117.223 29.6944 117.272 29.5055 117.375C29.3188 117.477 29.1602 117.62 29.0297 117.799C28.8991 117.981 28.7988 118.194 28.7334 118.436C28.6658 118.679 28.6332 118.94 28.6332 119.22C28.6332 119.5 28.6658 119.761 28.7334 120.003C28.7988 120.244 28.8991 120.456 29.0297 120.638C29.1602 120.82 29.3188 120.962 29.5055 121.062C29.6944 121.165 29.9089 121.216 30.1515 121.216C30.3872 121.216 30.5947 121.163 30.7767 121.058C30.9585 120.953 31.1078 120.81 31.2267 120.628C31.3434 120.446 31.432 120.234 31.4926 119.992C31.5533 119.751 31.5836 119.493 31.5836 119.22ZM28.6799 123.604H27.8683V116.696H28.6518V117.461H28.6612C28.8641 117.156 29.109 116.932 29.3911 116.792C29.6757 116.652 29.9696 116.582 30.2751 116.582C30.6064 116.582 30.9049 116.652 31.1685 116.787C31.432 116.925 31.6559 117.111 31.8379 117.352C32.0198 117.589 32.1573 117.869 32.253 118.187C32.3485 118.506 32.3952 118.849 32.3952 119.22C32.3952 119.588 32.3463 119.933 32.2483 120.255C32.1504 120.577 32.0104 120.855 31.8285 121.09C31.6465 121.328 31.4203 121.512 31.1498 121.65C30.8792 121.788 30.5783 121.855 30.2472 121.855C29.9417 121.855 29.6571 121.795 29.3958 121.673C29.1346 121.552 28.9037 121.342 28.6985 121.044H28.6799V123.604Z" fill="#878787"/>
<path d="M37.5264 119.18C37.2396 119.18 36.9644 119.196 36.7008 119.229C36.4349 119.259 36.204 119.315 36.0034 119.39C35.8028 119.467 35.6372 119.581 35.5112 119.73C35.3829 119.88 35.32 120.066 35.32 120.288C35.313 120.556 35.3876 120.778 35.544 120.953C35.7001 121.128 35.9335 121.216 36.246 121.216C36.4933 121.216 36.7148 121.172 36.906 121.086C37.0973 121.002 37.2535 120.883 37.3772 120.733C37.5031 120.584 37.5963 120.414 37.6594 120.223C37.7223 120.031 37.7551 119.826 37.7551 119.612V119.18H37.5264ZM37.7551 118.473C37.769 117.638 37.3608 117.223 36.5328 117.223C36.3275 117.223 36.1154 117.249 35.8915 117.298C35.6698 117.349 35.453 117.424 35.243 117.52L35.0612 116.878C35.2594 116.796 35.495 116.727 35.7725 116.668C36.0501 116.61 36.3159 116.582 36.5701 116.582C37.1812 116.575 37.6664 116.722 38.0233 117.023C38.3801 117.321 38.562 117.776 38.5667 118.387V120.594C38.5667 120.761 38.5759 120.95 38.5923 121.163C38.6063 121.377 38.6319 121.568 38.6622 121.741H37.9463C37.8879 121.531 37.8506 121.279 37.8319 120.985H37.8133C37.6733 121.235 37.4727 121.44 37.2115 121.603C36.9504 121.764 36.6121 121.848 36.1993 121.855C35.9872 121.855 35.7841 121.827 35.586 121.769C35.3901 121.713 35.2127 121.622 35.0565 121.498C34.9002 121.373 34.7743 121.216 34.6787 121.025C34.583 120.834 34.5364 120.605 34.5364 120.337C34.541 119.973 34.6272 119.679 34.793 119.453C34.9586 119.227 35.194 119.05 35.495 118.924C35.7981 118.795 36.1433 118.709 36.5281 118.665C36.913 118.62 37.3211 118.597 37.7551 118.597V118.473Z" fill="#878787"/>
<path d="M44.0336 117.48C43.8283 117.384 43.6232 117.319 43.4179 117.279C43.2103 117.242 42.9981 117.223 42.7812 117.223C42.6669 117.223 42.5526 117.232 42.443 117.256C42.3311 117.279 42.2284 117.314 42.1374 117.365C42.0442 117.417 41.9694 117.489 41.9112 117.58C41.8553 117.673 41.8272 117.785 41.8272 117.921C41.8272 118.028 41.8436 118.124 41.8785 118.205C41.9135 118.289 41.9741 118.366 42.0604 118.441C42.1469 118.513 42.2563 118.583 42.3893 118.651C42.5245 118.718 42.6925 118.788 42.8954 118.865C43.138 118.954 43.355 119.047 43.5462 119.143C43.7374 119.238 43.9031 119.346 44.043 119.462C44.183 119.581 44.2902 119.719 44.3625 119.877C44.4348 120.038 44.4721 120.223 44.4721 120.432C44.4721 120.701 44.4184 120.925 44.3088 121.111C44.2016 121.295 44.0593 121.442 43.8844 121.55C43.7095 121.659 43.5111 121.736 43.2919 121.783C43.0726 121.832 42.8511 121.855 42.6296 121.855C42.38 121.855 42.1024 121.827 41.7969 121.769C41.4914 121.713 41.2045 121.62 40.9386 121.494L41.1486 120.852C41.4144 120.974 41.6803 121.065 41.9416 121.125C42.2028 121.186 42.4383 121.216 42.6483 121.216C42.9398 121.221 43.1847 121.169 43.3782 121.058C43.5718 120.946 43.6722 120.754 43.6791 120.479C43.6722 120.244 43.5671 120.052 43.3642 119.903C43.1614 119.752 42.8581 119.607 42.4569 119.467C42.0045 119.308 41.657 119.115 41.4144 118.884C41.1742 118.655 41.0482 118.361 41.0437 118.005C41.0482 117.75 41.1019 117.536 41.1998 117.361C41.3002 117.186 41.4307 117.041 41.5963 116.927C41.7619 116.81 41.9463 116.726 42.1514 116.668C42.3544 116.61 42.5643 116.582 42.7812 116.582C43.0495 116.582 43.3105 116.605 43.5648 116.649C43.8191 116.694 44.0383 116.764 44.2248 116.859L44.0336 117.48Z" fill="#878787"/>
<path d="M50.4895 119.21C50.4895 118.917 50.4592 118.648 50.3986 118.406C50.3379 118.166 50.2469 117.956 50.1234 117.781C49.9974 117.606 49.8388 117.468 49.6453 117.37C49.4493 117.272 49.223 117.223 48.9618 117.223C48.7007 117.223 48.4721 117.272 48.2784 117.37C48.085 117.468 47.9239 117.606 47.8004 117.781C47.6768 117.956 47.5834 118.166 47.5228 118.406C47.4621 118.648 47.4342 118.917 47.4342 119.21C47.4342 119.502 47.4645 119.772 47.5275 120.017C47.5928 120.262 47.6861 120.474 47.8096 120.652C47.9356 120.831 48.0919 120.969 48.2831 121.067C48.4743 121.167 48.7007 121.216 48.9618 121.216C49.223 121.216 49.4493 121.167 49.6453 121.067C49.8388 120.969 49.9974 120.831 50.1234 120.652C50.2469 120.474 50.3379 120.262 50.3986 120.017C50.4592 119.772 50.4895 119.502 50.4895 119.21ZM51.3012 119.21C51.3012 119.623 51.2475 119.992 51.1403 120.318C51.0307 120.642 50.8744 120.92 50.6715 121.149C50.4686 121.377 50.2236 121.552 49.9367 121.673C49.6499 121.795 49.3257 121.855 48.9618 121.855C48.5981 121.855 48.2739 121.795 47.987 121.673C47.7 121.552 47.4551 121.377 47.2523 121.149C47.047 120.92 46.8908 120.642 46.7834 120.318C46.6761 119.992 46.6201 119.623 46.6201 119.21C46.6201 118.802 46.6761 118.434 46.7881 118.105C46.9 117.778 47.0539 117.503 47.2523 117.279C47.4482 117.058 47.693 116.885 47.987 116.764C48.2809 116.643 48.605 116.582 48.9618 116.582C49.3257 116.582 49.6499 116.643 49.9414 116.764C50.2307 116.885 50.4756 117.058 50.6762 117.279C50.8768 117.503 51.0307 117.778 51.1403 118.105C51.2475 118.434 51.3012 118.802 51.3012 119.21Z" fill="#878787"/>
<path d="M60.0428 119.18C59.7559 119.18 59.4807 119.196 59.2172 119.229C58.9513 119.259 58.7204 119.315 58.5198 119.39C58.3192 119.467 58.1536 119.581 58.0276 119.73C57.8993 119.88 57.8364 120.066 57.8364 120.288C57.8294 120.556 57.904 120.778 58.0604 120.953C58.2165 121.128 58.4499 121.216 58.7624 121.216C59.0095 121.216 59.2312 121.172 59.4224 121.086C59.6137 121.002 59.7699 120.883 59.8936 120.733C60.0195 120.584 60.1127 120.414 60.1758 120.223C60.2387 120.031 60.2713 119.826 60.2713 119.612V119.18H60.0428ZM60.2713 118.473C60.2854 117.638 59.8772 117.223 59.0492 117.223C58.8439 117.223 58.6318 117.249 58.4079 117.298C58.1862 117.349 57.9694 117.424 57.7594 117.52L57.5776 116.878C57.7758 116.796 58.0114 116.727 58.2888 116.668C58.5665 116.61 58.8323 116.582 59.0865 116.582C59.6976 116.575 60.1828 116.722 60.5395 117.023C60.8964 117.321 61.0784 117.776 61.0831 118.387V120.594C61.0831 120.761 61.0923 120.95 61.1087 121.163C61.1227 121.377 61.1483 121.568 61.1786 121.741H60.4627C60.4043 121.531 60.367 121.279 60.3483 120.985H60.3297C60.1897 121.235 59.9891 121.44 59.7279 121.603C59.4668 121.764 59.1285 121.848 58.7157 121.855C58.5035 121.855 58.3005 121.827 58.1024 121.769C57.9065 121.713 57.7291 121.622 57.5729 121.498C57.4166 121.373 57.2907 121.216 57.195 121.025C57.0994 120.834 57.0528 120.605 57.0528 120.337C57.0574 119.973 57.1436 119.679 57.3094 119.453C57.4749 119.227 57.7104 119.05 58.0114 118.924C58.3145 118.795 58.6597 118.709 59.0445 118.665C59.4293 118.62 59.8375 118.597 60.2713 118.597V118.473Z" fill="#878787"/>
<path d="M68.2106 121.741H67.3989V114.718H68.2106V121.741Z" fill="#878787"/>
<path d="M73.5983 119.18C73.3115 119.18 73.0363 119.196 72.7727 119.229C72.5068 119.259 72.2759 119.315 72.0753 119.39C71.8747 119.467 71.7091 119.581 71.5831 119.73C71.4548 119.88 71.3919 120.066 71.3919 120.288C71.3849 120.556 71.4595 120.778 71.6159 120.953C71.772 121.128 72.0054 121.216 72.3179 121.216C72.5652 121.216 72.7867 121.172 72.9779 121.086C73.1692 121.002 73.3254 120.883 73.4491 120.733C73.575 120.584 73.6682 120.414 73.7313 120.223C73.7942 120.031 73.8268 119.826 73.8268 119.612V119.18H73.5983ZM73.8268 118.473C73.8409 117.638 73.4327 117.223 72.6047 117.223C72.3994 117.223 72.1873 117.249 71.9634 117.298C71.7417 117.349 71.5249 117.424 71.3149 117.52L71.1331 116.878C71.3313 116.796 71.5669 116.727 71.8444 116.668C72.122 116.61 72.3878 116.582 72.642 116.582C73.2531 116.575 73.7383 116.722 74.095 117.023C74.452 117.321 74.6339 117.776 74.6386 118.387V120.594C74.6386 120.761 74.6478 120.95 74.6642 121.163C74.6782 121.377 74.7038 121.568 74.7341 121.741H74.0182C73.9598 121.531 73.9225 121.279 73.9038 120.985H73.8852C73.7452 121.235 73.5446 121.44 73.2834 121.603C73.0223 121.764 72.684 121.848 72.2712 121.855C72.0591 121.855 71.856 121.827 71.6579 121.769C71.462 121.713 71.2846 121.622 71.1284 121.498C70.9721 121.373 70.8462 121.216 70.7506 121.025C70.6549 120.834 70.6083 120.605 70.6083 120.337C70.6129 119.973 70.6991 119.679 70.8649 119.453C71.0305 119.227 71.2659 119.05 71.5669 118.924C71.8701 118.795 72.2152 118.709 72.6 118.665C72.9849 118.62 73.393 118.597 73.8268 118.597V118.473Z" fill="#878787"/>
<path d="M84.67 119.22C84.67 118.945 84.6397 118.688 84.579 118.445C84.5184 118.203 84.4298 117.991 84.3131 117.809C84.1942 117.629 84.0448 117.484 83.8631 117.379C83.6811 117.275 83.4735 117.223 83.2379 117.223C82.9953 117.223 82.7808 117.272 82.5919 117.375C82.4052 117.477 82.2468 117.62 82.1161 117.799C81.9855 117.981 81.8851 118.194 81.8198 118.436C81.7522 118.679 81.7196 118.94 81.7196 119.22C81.7196 119.5 81.7522 119.761 81.8198 120.003C81.8851 120.244 81.9855 120.456 82.1161 120.638C82.2468 120.82 82.4052 120.962 82.5919 121.062C82.7808 121.165 82.9953 121.216 83.2379 121.216C83.4735 121.216 83.6811 121.163 83.8631 121.058C84.0448 120.953 84.1942 120.81 84.3131 120.628C84.4298 120.446 84.5184 120.234 84.579 119.992C84.6397 119.751 84.67 119.493 84.67 119.22ZM81.7663 123.604H80.9547V116.696H81.7382V117.461H81.7476C81.9505 117.156 82.1954 116.932 82.4775 116.792C82.7621 116.652 83.056 116.582 83.3615 116.582C83.6928 116.582 83.9913 116.652 84.2549 116.787C84.5184 116.925 84.7423 117.111 84.9243 117.352C85.1062 117.589 85.2437 117.869 85.3394 118.187C85.4349 118.506 85.4816 118.849 85.4816 119.22C85.4816 119.588 85.4326 119.933 85.3347 120.255C85.2368 120.577 85.0968 120.855 84.9149 121.09C84.7329 121.328 84.5067 121.512 84.2362 121.65C83.9656 121.788 83.6647 121.855 83.3336 121.855C83.0281 121.855 82.7435 121.795 82.4822 121.673C82.221 121.552 81.9901 121.342 81.7849 121.044H81.7663V123.604Z" fill="#878787"/>
<path d="M90.3725 117.251C90.2582 117.233 90.1183 117.223 89.9527 117.223C89.7802 117.223 89.6238 117.249 89.4792 117.302C89.337 117.359 89.2087 117.447 89.0991 117.571C88.9872 117.694 88.9009 117.855 88.8403 118.054C88.7796 118.252 88.7493 118.497 88.7493 118.788V121.741H87.9377V116.696H88.7212V117.375H88.7306C88.8519 117.107 89.0198 116.908 89.2367 116.778C89.4536 116.647 89.7242 116.582 90.0484 116.582C90.0927 116.582 90.1533 116.584 90.2303 116.586C90.3072 116.591 90.3678 116.596 90.4123 116.6L90.3725 117.251Z" fill="#878787"/>
<path d="M95.8465 119.21C95.8465 118.917 95.8162 118.648 95.7555 118.406C95.6949 118.166 95.6039 117.956 95.4803 117.781C95.3543 117.606 95.1957 117.468 95.0023 117.37C94.8062 117.272 94.58 117.223 94.3188 117.223C94.0577 117.223 93.829 117.272 93.6354 117.37C93.4419 117.468 93.2809 117.606 93.1573 117.781C93.0338 117.956 92.9404 118.166 92.8797 118.406C92.8191 118.648 92.7912 118.917 92.7912 119.21C92.7912 119.502 92.8215 119.772 92.8844 120.017C92.9498 120.262 93.043 120.474 93.1666 120.652C93.2926 120.831 93.4489 120.969 93.6401 121.067C93.8313 121.167 94.0577 121.216 94.3188 121.216C94.58 121.216 94.8062 121.167 95.0023 121.067C95.1957 120.969 95.3543 120.831 95.4803 120.652C95.6039 120.474 95.6949 120.262 95.7555 120.017C95.8162 119.772 95.8465 119.502 95.8465 119.21ZM96.6581 119.21C96.6581 119.623 96.6045 119.992 96.4973 120.318C96.3877 120.642 96.2313 120.92 96.0285 121.149C95.8256 121.377 95.5806 121.552 95.2937 121.673C95.0068 121.795 94.6827 121.855 94.3188 121.855C93.955 121.855 93.6309 121.795 93.344 121.673C93.057 121.552 92.8121 121.377 92.6092 121.149C92.4039 120.92 92.2478 120.642 92.1404 120.318C92.0331 119.992 91.9771 119.623 91.9771 119.21C91.9771 118.802 92.0331 118.434 92.1451 118.105C92.257 117.778 92.4109 117.503 92.6092 117.279C92.8051 117.058 93.05 116.885 93.344 116.764C93.6378 116.643 93.962 116.582 94.3188 116.582C94.6827 116.582 95.0068 116.643 95.2984 116.764C95.5877 116.885 95.8326 117.058 96.0332 117.279C96.2338 117.503 96.3877 117.778 96.4973 118.105C96.6045 118.434 96.6581 118.802 96.6581 119.21Z" fill="#878787"/>
<path d="M99.6715 119.21C99.6715 119.483 99.6996 119.742 99.7603 119.982C99.8207 120.225 99.9117 120.437 100.028 120.619C100.147 120.801 100.297 120.946 100.478 121.053C100.658 121.163 100.87 121.216 101.113 121.216C101.355 121.216 101.57 121.163 101.759 121.058C101.946 120.953 102.104 120.81 102.235 120.629C102.365 120.447 102.466 120.234 102.531 119.992C102.599 119.752 102.631 119.49 102.631 119.21C102.631 118.928 102.599 118.667 102.531 118.427C102.466 118.184 102.365 117.974 102.235 117.795C102.104 117.617 101.946 117.478 101.759 117.375C101.57 117.272 101.355 117.223 101.113 117.223C100.877 117.223 100.667 117.274 100.483 117.38C100.297 117.484 100.147 117.629 100.028 117.809C99.9117 117.991 99.8207 118.2 99.7603 118.441C99.6996 118.679 99.6715 118.935 99.6715 119.21ZM102.585 114.718H103.396V121.741H102.613V120.976H102.594C102.396 121.27 102.158 121.489 101.878 121.636C101.598 121.783 101.302 121.855 100.989 121.855C100.658 121.855 100.36 121.788 100.096 121.65C99.8301 121.512 99.6086 121.328 99.4267 121.09C99.2447 120.855 99.1048 120.575 99.0068 120.251C98.9066 119.926 98.8575 119.579 98.8575 119.21C98.8575 118.84 98.9089 118.494 99.0115 118.173C99.1142 117.851 99.2564 117.575 99.4406 117.342C99.6248 117.109 99.8511 116.925 100.119 116.787C100.388 116.652 100.686 116.582 101.017 116.582C101.33 116.582 101.614 116.645 101.873 116.768C102.13 116.892 102.361 117.097 102.566 117.384H102.585V114.718Z" fill="#878787"/>
<path d="M109.444 121.741V120.997H109.432C109.281 121.263 109.066 121.473 108.789 121.627C108.511 121.778 108.199 121.855 107.849 121.855C107.275 121.848 106.832 121.683 106.519 121.354C106.207 121.027 106.048 120.582 106.041 120.022V116.696H106.855V119.717C106.855 119.952 106.874 120.162 106.911 120.346C106.951 120.53 107.014 120.687 107.102 120.815C107.191 120.941 107.312 121.041 107.466 121.111C107.618 121.181 107.809 121.216 108.038 121.216C108.21 121.216 108.381 121.184 108.546 121.121C108.712 121.055 108.856 120.96 108.985 120.829C109.113 120.698 109.216 120.526 109.295 120.314C109.374 120.099 109.414 119.847 109.414 119.553V116.696H110.225V121.741H109.444Z" fill="#878787"/>
<path d="M116.243 117.433C115.937 117.293 115.606 117.223 115.249 117.223C114.969 117.223 114.72 117.274 114.501 117.379C114.279 117.484 114.095 117.629 113.946 117.809C113.796 117.99 113.682 118.203 113.607 118.445C113.53 118.688 113.493 118.949 113.493 119.229C113.493 119.502 113.53 119.761 113.607 120.003C113.682 120.244 113.794 120.453 113.941 120.633C114.088 120.81 114.27 120.953 114.491 121.058C114.711 121.163 114.962 121.216 115.249 121.216C115.434 121.216 115.604 121.202 115.755 121.172C115.909 121.144 116.077 121.088 116.262 121.006L116.397 121.645C116.192 121.722 115.998 121.776 115.814 121.809C115.629 121.839 115.438 121.855 115.24 121.855C114.82 121.855 114.449 121.788 114.132 121.655C113.813 121.522 113.547 121.337 113.335 121.107C113.12 120.873 112.959 120.596 112.847 120.274C112.735 119.952 112.679 119.604 112.679 119.229C112.679 118.847 112.74 118.492 112.856 118.168C112.975 117.844 113.143 117.564 113.363 117.333C113.582 117.1 113.85 116.918 114.165 116.782C114.48 116.649 114.836 116.582 115.231 116.582C115.69 116.582 116.087 116.652 116.425 116.792L116.243 117.433Z" fill="#878787"/>
<path d="M118.137 116.696H119.035V115.427H119.846V116.696H121.013V117.337H119.846V120.355C119.846 120.528 119.853 120.666 119.865 120.771C119.879 120.876 119.907 120.96 119.951 121.02C119.996 121.081 120.061 121.121 120.147 121.139C120.234 121.158 120.345 121.167 120.485 121.167C120.595 121.167 120.688 121.165 120.768 121.158C120.847 121.151 120.933 121.141 121.022 121.13V121.741C120.933 121.753 120.817 121.769 120.672 121.783C120.53 121.799 120.39 121.809 120.257 121.809C119.996 121.809 119.786 121.778 119.627 121.718C119.468 121.657 119.343 121.564 119.254 121.44C119.165 121.316 119.107 121.167 119.077 120.997C119.049 120.824 119.035 120.626 119.035 120.404V117.337H118.137V116.696Z" fill="#878787"/>
<path d="M124.068 121.741H123.256V116.696H124.068V121.741ZM124.096 115.637H123.228V114.795H124.096V115.637Z" fill="#878787"/>
<path d="M128.422 121.044H128.443L129.934 116.696H130.792L128.891 121.741H127.947L126.055 116.696H126.944L128.422 121.044Z" fill="#878787"/>
<path d="M133.593 121.741H132.782V116.696H133.593V121.741ZM133.621 115.637H132.754V114.795H133.621V115.637Z" fill="#878787"/>
<path d="M136.861 119.21C136.861 119.483 136.889 119.742 136.949 119.982C137.01 120.225 137.101 120.437 137.218 120.619C137.336 120.801 137.486 120.946 137.668 121.053C137.847 121.163 138.06 121.216 138.302 121.216C138.545 121.216 138.759 121.163 138.948 121.058C139.135 120.953 139.293 120.81 139.424 120.629C139.555 120.447 139.655 120.234 139.72 119.992C139.788 119.752 139.82 119.49 139.82 119.21C139.82 118.928 139.788 118.667 139.72 118.427C139.655 118.184 139.555 117.974 139.424 117.795C139.293 117.617 139.135 117.478 138.948 117.375C138.759 117.272 138.545 117.223 138.302 117.223C138.067 117.223 137.857 117.274 137.672 117.38C137.486 117.484 137.336 117.629 137.218 117.809C137.101 117.991 137.01 118.2 136.949 118.441C136.889 118.679 136.861 118.935 136.861 119.21ZM139.774 114.718H140.585V121.741H139.802V120.976H139.783C139.585 121.27 139.347 121.489 139.067 121.636C138.787 121.783 138.491 121.855 138.178 121.855C137.847 121.855 137.549 121.788 137.285 121.65C137.019 121.512 136.798 121.328 136.616 121.09C136.434 120.855 136.294 120.575 136.196 120.251C136.096 119.926 136.047 119.579 136.047 119.21C136.047 118.84 136.098 118.494 136.201 118.173C136.303 117.851 136.446 117.575 136.63 117.342C136.814 117.109 137.04 116.925 137.308 116.787C137.577 116.652 137.875 116.582 138.206 116.582C138.519 116.582 138.804 116.645 139.062 116.768C139.319 116.892 139.55 117.097 139.755 117.384H139.774V114.718Z" fill="#878787"/>
<path d="M145.964 119.18C145.677 119.18 145.402 119.196 145.138 119.229C144.872 119.259 144.641 119.315 144.441 119.39C144.24 119.467 144.075 119.581 143.949 119.73C143.82 119.88 143.757 120.066 143.757 120.288C143.751 120.556 143.825 120.778 143.981 120.953C144.138 121.128 144.371 121.216 144.683 121.216C144.931 121.216 145.152 121.172 145.343 121.086C145.535 121.002 145.691 120.883 145.815 120.733C145.941 120.584 146.034 120.414 146.097 120.223C146.16 120.031 146.193 119.826 146.193 119.612V119.18H145.964ZM146.193 118.473C146.206 117.638 145.798 117.223 144.97 117.223C144.765 117.223 144.553 117.249 144.329 117.298C144.107 117.349 143.89 117.424 143.68 117.52L143.499 116.878C143.697 116.796 143.932 116.727 144.21 116.668C144.488 116.61 144.753 116.582 145.008 116.582C145.619 116.575 146.104 116.722 146.461 117.023C146.818 117.321 146.999 117.776 147.004 118.387V120.594C147.004 120.761 147.013 120.95 147.03 121.163C147.044 121.377 147.069 121.568 147.1 121.741H146.384C146.325 121.531 146.288 121.279 146.269 120.985H146.251C146.111 121.235 145.91 121.44 145.649 121.603C145.388 121.764 145.05 121.848 144.637 121.855C144.424 121.855 144.222 121.827 144.023 121.769C143.828 121.713 143.65 121.622 143.494 121.498C143.338 121.373 143.212 121.216 143.116 121.025C143.02 120.834 142.974 120.605 142.974 120.337C142.978 119.973 143.065 119.679 143.23 119.453C143.396 119.227 143.631 119.05 143.932 118.924C144.236 118.795 144.581 118.709 144.966 118.665C145.35 118.62 145.759 118.597 146.193 118.597V118.473Z" fill="#878787"/>
<path d="M150.265 119.21C150.265 119.483 150.293 119.742 150.353 119.982C150.414 120.225 150.505 120.437 150.622 120.619C150.74 120.801 150.89 120.946 151.072 121.053C151.251 121.163 151.464 121.216 151.706 121.216C151.949 121.216 152.163 121.163 152.352 121.058C152.539 120.953 152.697 120.81 152.828 120.629C152.959 120.447 153.059 120.234 153.124 119.992C153.192 119.752 153.224 119.49 153.224 119.21C153.224 118.928 153.192 118.667 153.124 118.427C153.059 118.184 152.959 117.974 152.828 117.795C152.697 117.617 152.539 117.478 152.352 117.375C152.163 117.272 151.949 117.223 151.706 117.223C151.471 117.223 151.261 117.274 151.076 117.38C150.89 117.484 150.74 117.629 150.622 117.809C150.505 117.991 150.414 118.2 150.353 118.441C150.293 118.679 150.265 118.935 150.265 119.21ZM153.178 114.718H153.989V121.741H153.206V120.976H153.187C152.989 121.27 152.751 121.489 152.471 121.636C152.191 121.783 151.895 121.855 151.582 121.855C151.251 121.855 150.953 121.788 150.689 121.65C150.423 121.512 150.202 121.328 150.02 121.09C149.838 120.855 149.698 120.575 149.6 120.251C149.5 119.926 149.451 119.579 149.451 119.21C149.451 118.84 149.502 118.494 149.605 118.173C149.707 117.851 149.85 117.575 150.034 117.342C150.218 117.109 150.444 116.925 150.712 116.787C150.981 116.652 151.279 116.582 151.61 116.582C151.923 116.582 152.208 116.645 152.466 116.768C152.723 116.892 152.954 117.097 153.159 117.384H153.178V114.718Z" fill="#878787"/>
</g>
<defs>
<clipPath id="clip0_7_2">
<rect width="165.23" height="123.6" fill="white"/>
</clipPath>
</defs>
</svg>
